<svg xmlns="http://www.w3.org/2000/svg" version="1.1" xmlns:xlink="http://www.w3.org/1999/xlink" width="512" height="512" x="0" y="0" viewBox="0 0 200 200" style="enable-background:new 0 0 512 512" xml:space="preserve" class=""><g><circle cx="100" cy="100" r="64" fill="#2d2d2d" opacity="1" data-original="#2d2d2d"></circle><g fill="#59ceb7"><path d="m110.579 105.739-22.583-3.1a2.133 2.133 0 1 0-.581 4.227l11.657 1.6-1.524 10.016a2.134 2.134 0 0 0 4.219.641l1.534-10.077 4.855.666v11.223a2.133 2.133 0 0 0 4.266 0v-13.083a2.135 2.135 0 0 0-1.843-2.113z" fill="#59ceb7" opacity="1" data-original="#59ceb7"></path><path d="M134.133 91.569h-2.964l-6.437-1.923-10.428-8.834a7.378 7.378 0 0 0-4.761-1.748H72.419c-2.436 0-4.419 1.992-4.419 4.44v37.432a2.133 2.133 0 0 0 4.266 0v-7.948l4.939-2.652 3.594 9.24a2.132 2.132 0 0 0 2.762 1.215 2.133 2.133 0 0 0 1.215-2.761l-4.467-11.485c-.017-.043-.042-.079-.061-.121-.018-.038-.028-.078-.048-.116-.013-.024-.032-.044-.046-.068a2.152 2.152 0 0 0-.13-.192 2.24 2.24 0 0 0-.121-.152 1.902 1.902 0 0 0-.157-.154 2.042 2.042 0 0 0-.151-.128 2.028 2.028 0 0 0-.175-.115 2.333 2.333 0 0 0-.176-.099 2.122 2.122 0 0 0-.191-.078c-.063-.023-.126-.046-.191-.063-.067-.018-.135-.029-.203-.041a1.936 1.936 0 0 0-.201-.025c-.068-.005-.136-.003-.205-.001a2.158 2.158 0 0 0-.212.015 2.41 2.41 0 0 0-.414.098c-.027.009-.054.012-.081.023-.042.016-.078.041-.118.06-.039.018-.08.029-.119.049l-5.044 2.707v-24.64c0-.095.068-.173.152-.173h37.123c.731 0 1.443.262 2.004.737l10.768 9.122c.225.191.486.332.769.417l6.472 1.933.193 12.757-1.014.297-.801-.497c-2.068-1.283-6.622-4.978-6.668-5.016a2.134 2.134 0 0 0-2.69 3.312c.195.158 4.81 3.902 7.107 5.328l1.408.874a2.667 2.667 0 0 0 2.152.295l2.878-.843a2.668 2.668 0 0 0 1.909-2.741l-.204-13.472h.306a2.133 2.133 0 0 0 .004-4.265z" fill="#59ceb7" opacity="1" data-original="#59ceb7"></path></g></g></svg>