<svg xmlns="http://www.w3.org/2000/svg" version="1.1" xmlns:xlink="http://www.w3.org/1999/xlink" width="512" height="512" x="0" y="0" viewBox="0 0 279.701 279.701" style="enable-background:new 0 0 512 512" xml:space="preserve" class=""><g><path d="M227.879 72.688c2.56.999 3.772-8.64 10.08-11.476 13.801-6.203 25.992 3.114 33.046-.621 5.272-2.792 6.823-8.218 7.133-10.389.31-2.171 1.706-3.877 1.55 1.24-.154 5.117.643 19.074-22.966 19.074-9.32-.386-11.295 1.159-11.94 4.032-1.188 5.288 3.256 7.908 6.203 9.148 2.946 1.241 9.614 4.188 10.234 14.267.621 3.411 10.39 19.538 12.871 22.64 2.481 3.102 6.513 7.908 1.086 12.095-2.327 1.861-4.808 2.171-4.808 2.171s-4.341 7.288-15.972-1.706c-5.583.31-20.159-1.551-28.688-6.668-1.457-.659-8.858-2.229-25.467 16.176-3.256 3.567-4.677 9.91-10.336 16.983-5.583 6.978-11.669 6.423-12.769 8.758-3.722 7.909-1.533 16.95-2.445 20.73-1.085 4.497-6.955 12.405-5.094 20.004 1.861 7.599 3.698 18.143 11.762 22.33H160.27s-6.668-12.406-4.342-23.105c2.327-10.7-1.551-36.751-3.722-39.853-2.171-3.101-14.111-3.101-34.58-4.497s-34.361-14.419-46.597-13.646c-3.253.206-9.924 2.326-18.763 17.212-4.496 8.38-12.406 10.7-13.181 18.608-.775 7.908-3.061 33.991 10.854 45.281-13.801.309-20.314 0-20.314 0s-4.187-14.112-2.481-30.705c1.706-16.592-4.187-24.19-3.256-31.013.931-6.823 7.908-12.095 6.513-24.035-1.396-11.94-17.212-27.447-17.988-45.59-.62 8.994-2.636 25.121-1.551 44.039 2.791 8.684 12.515 10.882-1.396 41.869.155-8.218-9.769-12.561-9.46-23.26.311-10.7 5.583-12.871 5.738-18.608.155-5.737-.465-42.488-.465-42.488s.694-15.645 10.378-23.617c9.177-7.556 22.652-11.344 44.052-11.034 21.4.31 29.282 11.339 43.245 9.578 13.179-1.662 27.542-5.321 44.29-8.577 16.747-3.257 50.862-6.976 80.635 4.653z" fill="#000000" opacity="1" data-original="#000000" class=""></path></g></svg>