<svg xmlns="http://www.w3.org/2000/svg" version="1.1" xmlns:xlink="http://www.w3.org/1999/xlink" width="512" height="512" x="0" y="0" viewBox="0 0 64 64" style="enable-background:new 0 0 512 512" xml:space="preserve" class=""><g><path d="M13.9 12.43c.95 1.39 1.26 3.22 2.5 4.38a15.39 15.39 0 0 0 7.46 1.42c8.44-.12 17-.28 25.23-2.22 4.44-1.12 9.93 1.34 10.62 6.2.9 4.66.14 9.45 1.1 14.09a10.34 10.34 0 0 1-.33 5.09c-3.45-3.87 0-9.31-1.17-13.87A30.63 30.63 0 0 0 55.52 42c-.25 3.14.36 6.63-1.47 9.4l-3 .16c2.16-2.88 2-6.52 1.36-9.87-.95 2.81-1.5 5.73-2.57 8.51l-2.43-.13c2-2.58 1.88-5.87 1.9-8.93a45.55 45.55 0 0 1-3.57-5c-5.51 3-12 3.21-18.08 2-1 4.41-.84 9-1.76 13.37l-3.23-.06c.61-.81 1.23-1.63 1.85-2.42-.41-2.79-.88-5.56-1.55-8.29-.36 3.2-.57 6.43-1.08 9.62h-3.12l1.53-1.87c0-2.92.76-6-.12-8.8a21.21 21.21 0 0 1-6.74-11 29.52 29.52 0 0 1-5.36-3.12c-1.86-.55-5.79-.43-5-3.37 2.05-2.58 5.69-3.46 7.31-6.5.57-1.42 2-1.54 3.33-1.22 0-.51.11-1.55.15-2.07z" data-name="Layer 5" fill="#000000" opacity="1" data-original="#000000"></path></g></svg>