<svg xmlns="http://www.w3.org/2000/svg" version="1.1" xmlns:xlink="http://www.w3.org/1999/xlink" width="512" height="512" x="0" y="0" viewBox="0 0 1707 1707" style="enable-background:new 0 0 512 512" xml:space="preserve" fill-rule="evenodd" class=""><g><path fill="#82c6dd" d="M368 543c-17 0-33-7-44-19-25-24-25-63 0-88l49-49c7-7 11 0 19 8 8 7 17 13 9 21l-49 49c-9 8-9 23 0 31 4 4 10 7 16 7s11-3 16-7l64-64c7-8 13-2 21 6s15 15 7 23l-64 64c-12 11-28 18-44 18zM1047 543c-17 0-33-7-44-19l-64-64c-8-7-6-18 1-26 8-8 19-10 27-2l64 64c8 8 23 8 31 0 5-4 7-10 7-16s-2-11-7-16l-48-48c-8-8-3-17 5-25s15-12 23-4l49 49c11 12 18 27 18 44s-7 32-18 44c-12 12-28 19-44 19zM160 1480H86c-11 0-20-9-20-20s9-20 20-20h74c11 0 20 9 20 20s-9 20-20 20zm1314 227c-11 0-20-9-20-20v-74c0-11 9-20 20-20s20 9 20 20v74c0 11-9 20-20 20zm-195 0c-11 0-20-9-20-20v-74c0-11 9-20 20-20s20 9 20 20v74c1 11-8 20-20 20zm-194 0c-11 0-20-9-20-20v-74c0-11 9-20 20-20s20 9 20 20v74c0 11-9 20-20 20zm-195 0c-11 0-20-9-20-20v-74c0-11 9-20 20-20s20 9 20 20v74c0 11-9 20-20 20zm-195 0c-11 0-20-9-20-20v-74c0-11 9-20 20-20 12 0 20 9 20 20v74c0 11-8 20-20 20zm-194 0c-11 0-20-9-20-20v-74c0-11 9-20 20-20s20 9 20 20v74c0 11-9 20-20 20zm-195 0c-11 0-20-9-20-20v-74c0-11 9-20 20-20s20 9 20 20v74c0 11-9 20-20 20zM160 701H86c-11 0-20-9-20-20s9-20 20-20h74c11 0 20 9 20 20s-9 20-20 20zm0 195H86c-11 0-20-9-20-20s9-20 20-20h74c11 0 20 9 20 20s-9 20-20 20zm0 195H86c-11 0-20-9-20-20s9-20 20-20h74c11 0 20 9 20 20s-9 20-20 20zm0 194H86c-11 0-20-9-20-20s9-20 20-20h74c11 0 20 9 20 20s-9 20-20 20z" opacity="1" data-original="#82c6dd" class=""></path><g fill="#274257"><path d="M707 982c-55 0-108-27-140-72-7-9-5-22 4-28 9-7 22-4 28 5 25 34 66 55 108 55 43 0 84-21 108-55 7-9 19-12 28-5 9 6 11 19 5 28-32 45-85 72-141 72zM533 730h-2c-11-1-19-11-18-22 10-86-19-190-73-257-3-3-5-6-7-8-16-19-21-28-21-60 0-81 66-147 147-147 35 0 68 12 95 34 14 10 92 10 107 1 26-23 59-35 94-35 81 0 147 66 147 147 0 33-6 42-20 60-3 3-7 7-11 12-52 68-79 167-70 253 1 11-6 21-17 22-10 1-18-4-21-13 0-1-1-3-1-4-11-96 19-207 78-282 4-6 8-11 11-14 10-12 11-13 11-34 0-59-48-107-107-107-25 0-50 9-69 25-26 22-132 22-158 0-19-16-44-25-69-25-59 0-107 48-107 107 0 20 1 21 12 34 2 3 4 6 7 9 61 76 93 189 82 287-1 10-10 17-20 17z" fill="#274257" opacity="1" data-original="#274257" class=""></path><path d="M627 848c-40 0-73-32-73-73 0-27 15-51 39-64 8-4 17-3 23 3l72 71c6 6 7 16 3 24-12 24-37 39-64 39zm-26-93c-5 6-7 13-7 21 0 18 15 32 33 32 7 0 14-2 20-7zM788 848c-27 0-52-15-65-39-4-8-2-18 4-24l71-71c6-6 16-7 24-3 24 13 39 37 39 64 0 41-33 73-73 73zm-20-47c5 5 12 7 20 7 18 0 33-14 33-33 0-7-3-14-7-20zM416 424c-44 0-87-16-120-46-38-34-60-83-60-134 0-17 4-32 7-47 8-35 18-74-16-152-7-18-5-33 6-40 16-12 35 3 41 7 51 35 82 93 82 155 0 11-1 22-3 33 4 47 43 84 91 84 4 0 9-1 14-1 11-2 21 5 23 16s-6 21-17 23c-6 1-13 2-20 2-70 0-127-55-131-124-1-2 0-3 0-5 2-9 2-18 2-28 0-36-13-71-37-98 21 65 12 105 4 138-3 13-6 25-6 37 0 40 17 78 47 105 29 26 69 39 108 35 11-1 21 6 22 17 2 11-6 21-17 22-7 1-13 1-20 1zM998 424c-6 0-13 0-19-1-11-1-6-10-5-21s-2-20 9-19c39 5 79-8 108-34 30-27 47-65 47-105 0-12-3-24-6-38-7-32-17-72 4-137-24 27-37 62-37 98 0 9 1 19 2 28 1 2 1 3 1 5-4 69-62 123-131 123-7 0-14 0-21-1-11-2-18-12-17-23 2-11 12-19 23-17 5 1 10 1 15 1 47 0 87-36 91-83-2-11-3-22-3-33 0-62 30-121 82-156 5-4 24-19 40-7 11 8 13 22 7 40-34 79-25 118-17 153 3 15 7 30 7 47 0 51-22 100-60 134-33 30-76 46-120 46z" fill="#274257" opacity="1" data-original="#274257" class=""></path></g><path fill="#82c6dd" d="M608 495c-35 0-64-29-64-65s29-65 64-65c36 0 65 29 65 65s-29 65-65 65zm0-90c-13 0-24 11-24 25 0 13 11 24 24 24 14 0 25-11 25-24 0-14-11-25-25-25zM806 495c-36 0-65-29-65-65s29-65 65-65 65 29 65 65-29 65-65 65zm0-90c-13 0-25 11-25 25 0 13 12 24 25 24 14 0 25-11 25-24 0-14-11-25-25-25z" opacity="1" data-original="#82c6dd" class=""></path><path fill="#274257" d="M1614 1633H160c-12 0-20-9-20-20V534c0-12 8-20 20-20 11 0 20 8 20 20v1059h1434c11 0 20 9 20 20s-9 20-20 20z" opacity="1" data-original="#274257" class=""></path><path fill="#274257" d="M1520 1553h-215c-11 0-20-9-20-20V776c0-12 9-20 20-20h215c11 0 20 8 20 20v757c1 11-8 20-20 20zm-195-40h175V796h-175z" opacity="1" data-original="#274257" class=""></path><path fill="#82c6dd" d="M1174 1553H959c-11 0-20-9-20-20V918c0-11 9-20 20-20h215c11 0 20 9 20 20v615c0 11-9 20-20 20zm-195-40h175V938H979z" opacity="1" data-original="#82c6dd" class=""></path><path fill="#274257" d="M828 1553H613c-11 0-20-9-20-20v-486c0-11 9-20 20-20h215c11 0 20 9 20 20v486c0 11-9 20-20 20zm-195-40h175v-446H633z" opacity="1" data-original="#274257" class=""></path><path fill="#82c6dd" d="M482 1553H266c-11 0-20-9-20-20v-337c0-11 9-20 20-20h216c11 0 20 9 20 20v337c0 11-9 20-20 20zm-196-40h176v-297H286z" opacity="1" data-original="#82c6dd" class=""></path><path fill="#274257" d="M220 608c-5 0-10-2-14-6l-46-46-46 46c-8 8-21 8-29 0-7-7-7-20 0-28l61-60c7-8 20-8 28 0l60 60c8 8 8 20 0 28-4 4-9 6-14 6zM1560 1694c-5 0-10-2-14-6-8-8-8-21 0-29l46-46-46-46c-8-7-8-20 0-28s21-8 29 0l60 60c3 4 6 9 6 14 0 6-3 11-6 15l-60 60c-4 4-9 6-15 6zM246 980c-5 0-10-1-14-5-8-8-8-21 0-29l223-222c5-5 12-7 19-6l55 15c11 3 6 12 3 22-3 11-3 19-13 17l-44-12-215 215c-4 4-9 5-14 5zm923-370H889c-11 0-20-9-20-20s9-20 20-20h274l190-109c10-6 22-2 27 7 6 10 3 22-7 28l-194 112c-3 1-7 2-10 2z" opacity="1" data-original="#274257" class=""></path><path fill="#274257" d="M1344 578h-5c-11-3-17-14-14-25l16-63-63-16c-10-3-16-14-14-25 3-11 14-17 25-14l82 22c5 1 9 5 12 9 3 5 3 10 2 15l-22 83c-2 9-10 14-19 14z" opacity="1" data-original="#274257" class=""></path><path fill="#82c6dd" d="M841 918H573c-38 0-70-31-70-70v-87c0-87 71-158 158-158h93c86 0 157 71 157 158v87c0 39-31 70-70 70zM661 643c-65 0-118 53-118 118v87c0 17 14 30 30 30h268c17 0 30-13 30-30v-87c0-65-53-118-117-118z" opacity="1" data-original="#82c6dd" class=""></path></g></svg>