<svg xmlns="http://www.w3.org/2000/svg" version="1.1" xmlns:xlink="http://www.w3.org/1999/xlink" width="512" height="512" x="0" y="0" viewBox="0 0 160 160" style="enable-background:new 0 0 512 512" xml:space="preserve" class=""><g><g fill="#00894e"><path d="M20.7 30.6c7.5-10.3 17.1-15.9 26.8-15.9s19.3 5.7 26.8 15.9c6.3 8.6 10.2 19.1 10.7 28.8h3c-1-22.2-18.7-47.9-40.5-47.9S8 37.2 7 59.3h3c.5-9.6 4.4-20.2 10.7-28.7zM55.9 142.3l-4.1 2-3.7-.9-3.4.8-4.3-3.1-4.3 3.1-3.4-.8-3.7.9-4.1-2-4.3 2.1h-2.5l-4.8-5.9-4.8 5.9-1.5.1v4l3.4-.1 2.9-3.6 2.9 3.6h5.3l3.4-1.7 3.7 1.8 4.1-1 4.3 1 3.4-2.5 3.4 2.5 4.3-1 4.1 1 3.7-1.8 3.4 1.7h6.4v-4h-5.5zM141.3 144.5H153v4h-11.7z" fill="#00894e" opacity="1" data-original="#00894e"></path></g><path fill="#00ce53" d="M70.7 79.1h10.4V61.6c0-19.3-15.5-43-33.6-43s-33.6 23.6-33.6 43v31.1h17.9v-27h31.4v15.8c2.3-1.5 4.9-2.4 7.5-2.4zM55.3 43.7H39.2v-8h16.2v8z" opacity="1" data-original="#00ce53"></path><path fill="#353535" d="m82 126.6-2.3 3.3v3.6l4.4 13.5h6.7l-6.6-20.4zM112.8 126.6l3.7 5.2-5.4 15.2h6.6l5.7-15.3-10.1-5.1z" opacity="1" data-original="#353535"></path><path fill="#353535" d="M142.5 124.5c2.2-2.2 3.3-5.1 3.3-8 0-1.8-.4-3.7-1.3-5.3V94.6c0-6.4-5.2-11.5-11.5-11.5H70.7c-2.1 0-4.2.8-5.8 2.1l-18.3 15.6-4.1 1.2c-1.7-.3-3.3-.5-4.5-.8h-.2c-.7 0-1.1.8-.8 1.4l.6.9-4.6 1.4c-.8.2-.9 1.3-.2 1.6l3.1 1.6-2.2 3.4c-.3.5-.5 1-.4 1.6l.1 1.1c.6 4.4.6 8.8-.1 13.1l-.7 4.1c-.1.4.2.9.6 1l4.9 1.5h.3c.2 0 .3 0 .5-.1l2.3-1.5c3.8-2.4 7-5.5 9.4-9.3h13.2l5.6 6.8v18.7h6.3v-19.7l4.1-6.1h34.4l17.2 8.8v17h6.3v-18.3c0-.4-.1-.8-.2-1.1l-4.5-14 3-10.5c.3-1.2.5-2.4.5-3.6V88c2.4 1.3 4 3.8 4 6.7v16.5c-2.3 4.3-1.6 9.7 2 13.3z" opacity="1" data-original="#353535"></path><path fill="#00894e" d="M149 67.4v4.4h-5.7v-4.4h-4v4.4h-5.7v-4.4h-4v4.4h-5.7v-4.4h-4v4.4h-5.7v-4.4h-4v4.4h-5.7v-4.4h-4v4.4h-5.7v-4.4h-4v4.4h-5.7v4h5.7v3.4h4v-3.4h5.7v3.4h4v-3.4h5.7v3.4h4v-3.4h5.7v3.4h4v-3.4h5.7v3.4h4v-3.4h5.7v4.7c1.5.7 2.8 1.5 4 2.6v-7.3h5.7v19h4V67.4z" opacity="1" data-original="#00894e"></path></g></svg>