<svg xmlns="http://www.w3.org/2000/svg" version="1.1" xmlns:xlink="http://www.w3.org/1999/xlink" width="512" height="512" x="0" y="0" viewBox="0 0 58 58" style="enable-background:new 0 0 512 512" xml:space="preserve" class=""><g><path d="m28.4 38.2-2.2.94c-1.43.62-1.59 1.64-2 2.17a16 16 0 0 1-2.52 3c1.66 3.17 1.7 4.79.07 8a2.27 2.27 0 0 0 .07 2.23l1.23 2a.88.88 0 0 0 1.61-.63c-.71-3.46-.6-4.08.3-7.69.07-1.71 1.5-4 4.23-6.68a1.78 1.78 0 0 0 .54-1.28c.04-1.04-.81-1.44-1.33-2.06z" fill="#000000" opacity="1" data-original="#000000" class=""></path><path d="M50 6c-.34 0 .21.22-7.49-3.89a1.58 1.58 0 0 0-1.75.37l-9 9.22a1 1 0 0 1-.76.3c-5.21 0-11.93 12.56-14.09 17.41A1 1 0 0 1 16 30c-2.31 0-5 3.49-5 8a3.29 3.29 0 0 1-3 3c-1 0-3-.42-3-2s.56-2 2-2a1 1 0 0 0 0-2 3.64 3.64 0 0 0-4 4c0 2.63 2.52 4 5 4a5.15 5.15 0 0 0 4-2.18c.21.36.45.74.75 1.16a6.26 6.26 0 0 1 .63 6.12A20.79 20.79 0 0 0 12 54.88l.59 2.37a1 1 0 0 0 1.76.4c.35-.43.22-.71 0-1.93-.41-2 .25-3.06.83-5.26 1.21-4.42 4-6.35 5.69-8.08a12.72 12.72 0 0 0 1.78-2.25 5.12 5.12 0 0 1 2.8-2.83l2.82-1.21c4.9-2.1 8.65-3.32 12.42-7.86l1.1-1.32a1.26 1.26 0 0 1 2.23.8v3.06c0 .58-.06.56-1.81 4.09a.31.31 0 0 0 .47.39l2.14-1.6c.5-.38.34-.23 2.9-7.07.3-.8.07-1.32-.21-2.47a2.23 2.23 0 0 0-1.6-1.61l-1.15-.28A2.31 2.31 0 0 1 43 20v-4.8a1.4 1.4 0 0 1 2.51-.84l1.69 2.24A1 1 0 0 0 49 16v-2.22c0-2 2-2.68 2-3.47A2.12 2.12 0 0 1 52.84 8a7.6 7.6 0 0 0 5.24-3.12A23.07 23.07 0 0 1 50 6zM32 29.42V30a1 1 0 0 1-2 0v-.55a4.48 4.48 0 0 1-2.71-1A1.015 1.015 0 0 1 28.71 27a4.17 4.17 0 0 0 2.29.5c.75 0 2-.16 2-1.25 0-.84-.32-1-2.12-1.26-1.45-.18-3.88-.48-3.88-3.24a3.35 3.35 0 0 1 3-3.15V18a1 1 0 0 1 2 0v.58a4.11 4.11 0 0 1 2.88 1.8 1 1 0 0 1-.4 1.36 1 1 0 0 1-1.35-.38C32.3 20 29 20.31 29 21.75c0 .84.32 1 2.12 1.26 1.45.18 3.88.48 3.88 3.24a3.19 3.19 0 0 1-3 3.17zM9 22.2l1.87-9.37L19.22 11c.33-.08-.47.52 9.78-7.87V5a1 1 0 0 0 2 0V1a1.25 1.25 0 0 0-.23-.63A1.2 1.2 0 0 0 30 0h-4a1 1 0 0 0 0 2h1.2l-8.65 7.08L9.78 11a1 1 0 0 0-.78.8l-1.9 9.52-5.55 2.79a1 1 0 1 0 .9 1.78l6-3A1 1 0 0 0 9 22.2z" fill="#000000" opacity="1" data-original="#000000" class=""></path></g></svg>