<svg xmlns="http://www.w3.org/2000/svg" version="1.1" xmlns:xlink="http://www.w3.org/1999/xlink" width="512" height="512" x="0" y="0" viewBox="0 0 64 64" style="enable-background:new 0 0 512 512" xml:space="preserve" class=""><g><path d="M27.043 33.818a.998.998 0 0 1-.924-.619l-4.043-9.818a1.002 1.002 0 0 1 .22-1.091c.288-.285.72-.368 1.092-.212l9.713 4.087a1 1 0 0 1 .323 1.625l-5.67 5.731a.997.997 0 0 1-.711.297zm-2.194-8.956 2.544 6.18 3.569-3.607-6.113-2.572z" fill="#000000" opacity="1" data-original="#000000" class=""></path><path d="M57.33 64a.998.998 0 0 1-.706-.292L26.337 33.526a1.001 1.001 0 0 1-.005-1.412l5.67-5.731c.188-.189.44-.281.711-.297.265 0 .519.105.706.292L63.706 56.56c.39.389.392 1.02.005 1.412l-5.67 5.731a1 1 0 0 1-.708.297zM28.455 32.813l28.871 28.77 4.263-4.31-28.871-28.77z" fill="#000000" opacity="1" data-original="#000000" class=""></path><path d="M52.312 58.739a1 1 0 0 1-.711-1.703l5.054-5.108a1 1 0 1 1 1.422 1.406l-5.054 5.108a.996.996 0 0 1-.711.297zM45 64H1a1 1 0 0 1-1-1V1a1 1 0 0 1 1-1h32c.265 0 .52.105.707.293l12 12A1 1 0 0 1 46 13v26.34a1 1 0 0 1-2 0V13.414L32.586 2H2v60h42V50.71a1 1 0 0 1 2 0V63a1 1 0 0 1-1 1z" fill="#000000" opacity="1" data-original="#000000" class=""></path><path d="M32.903 14a1 1 0 0 1-1-1V2a1 1 0 0 1 2 0v11a1 1 0 0 1-1 1z" fill="#000000" opacity="1" data-original="#000000" class=""></path><path d="M45 14H33a1 1 0 0 1 0-2h12a1 1 0 0 1 0 2zM13 21H7a1 1 0 0 1-1-1v-6a1 1 0 0 1 1-1h6a1 1 0 0 1 1 1v6a1 1 0 0 1-1 1zm-5-2h4v-4H8zM28 16H17a1 1 0 0 1 0-2h11a1 1 0 0 1 0 2zM37 20H17a1 1 0 0 1 0-2h20a1 1 0 0 1 0 2zM13 33H7a1 1 0 0 1-1-1v-6a1 1 0 0 1 1-1h6a1 1 0 0 1 1 1v6a1 1 0 0 1-1 1zm-5-2h4v-4H8zM24.65 28H17a1 1 0 0 1 0-2h7.65a1 1 0 0 1 0 2zM26.29 32H17a1 1 0 0 1 0-2h9.29a1 1 0 0 1 0 2zM13 45H7a1 1 0 0 1-1-1v-6a1 1 0 0 1 1-1h6a1 1 0 0 1 1 1v6a1 1 0 0 1-1 1zm-5-2h4v-4H8zM33.24 40H17a1 1 0 0 1 0-2h16.24a1 1 0 0 1 0 2zM37 44H17a1 1 0 0 1 0-2h20a1 1 0 0 1 0 2zM13 57H7a1 1 0 0 1-1-1v-6a1 1 0 0 1 1-1h6a1 1 0 0 1 1 1v6a1 1 0 0 1-1 1zm-5-2h4v-4H8zM37 52H17a1 1 0 0 1 0-2h20a1 1 0 0 1 0 2zM37 56H17a1 1 0 0 1 0-2h20a1 1 0 0 1 0 2z" fill="#000000" opacity="1" data-original="#000000" class=""></path></g></svg>