<svg xmlns="http://www.w3.org/2000/svg" version="1.1" xmlns:xlink="http://www.w3.org/1999/xlink" width="512" height="512" x="0" y="0" viewBox="0 0 100 100" style="enable-background:new 0 0 512 512" xml:space="preserve" class=""><g><path fill="#003e79" d="M6.324 91.755a1.033 1.033 0 0 1-.902-1.535c2.003-3.595 3.583-7.424 4.832-11.705a.813.813 0 0 1 .037-.105 9.722 9.722 0 0 1 4.823-5.094c3.197-1.516 5.644-3.115 7.274-4.756a1.033 1.033 0 0 1 1.464 1.456c-1.823 1.835-4.392 3.526-7.852 5.165a7.666 7.666 0 0 0-3.78 3.968c-1.29 4.408-2.923 8.359-4.993 12.076-.19.34-.54.53-.903.53zM14.258 91.755c-.472 0-.897-.324-1.006-.804-1.683-7.43 8.507-11.281 17.572-13.806 2.325-.649 4.332-2.25 5.505-4.393l1.94-3.543a1.031 1.031 0 1 1 1.81.993l-1.939 3.542c-1.438 2.628-3.902 4.592-6.761 5.39-11.992 3.34-17.112 6.95-16.113 11.36a1.033 1.033 0 0 1-1.008 1.261z" opacity="1" data-original="#003e79" class=""></path><path fill="#003e79" d="M44.151 78.191H44.1c-3.942-.192-7.649-.36-10.004-.462-.57-.024-1.011-.506-.987-1.076s.525-1.026 1.076-.987c2.357.101 6.068.27 10.016.461a1.033 1.033 0 0 1-.05 2.064z" opacity="1" data-original="#003e79" class=""></path><path fill="#003e79" d="M83.177 82.81c-.207 0-.415-.027-.62-.084-4.97-1.367-7.033-7.578-7.651-9.959-3.33.419-5.266 1.865-7.143 3.265-1.425 1.065-2.898 2.165-4.863 2.69a1.032 1.032 0 1 1-.532-1.995c1.58-.422 2.775-1.315 4.16-2.35 2.169-1.619 4.627-3.454 9.11-3.754.515-.017.986.326 1.084.837.015.08 1.576 7.951 6.386 9.275a.26.26 0 0 0 .204-.029.372.372 0 0 0 .17-.226c.797-2.875 2.567-8.023 5.522-10.38.426-.337.486-.631.492-.85.028-.993-1.177-2.291-1.6-2.669-.332-.325-7.153-7.09-9.674-10.454-.392-.521-.818-1.161-1.284-1.863-2.488-3.75-5.895-8.883-11.61-7.358-7.411 1.97-18.429 6.812-24.347 9.413-2.783 1.22-5.846 1.887-8.807 2.532-4.238.923-8.241 1.795-10.164 4.128-2.46 3.014-3.04 7.938-3.174 9.915-.038.569-.514.984-1.101.96a1.034 1.034 0 0 1-.96-1.101c.185-2.7.903-7.732 3.638-11.083 2.381-2.89 6.724-3.835 11.322-4.838 2.863-.623 5.822-1.267 8.416-2.404 8.264-3.631 17.665-7.662 24.646-9.517 7.152-1.903 11.35 4.427 13.862 8.21.441.666.844 1.273 1.215 1.768 2.431 3.241 9.362 10.116 9.433 10.185.196.171 2.309 2.096 2.254 4.226-.024.94-.464 1.776-1.27 2.416-2.592 2.068-4.23 7.192-4.814 9.3a2.44 2.44 0 0 1-1.135 1.48 2.326 2.326 0 0 1-1.165.315zM36.444 91.757a1.033 1.033 0 0 1-1.026-1.164c.06-.465.198-2.04-.537-2.753-.271-.261-1.093-.663-1.889-1.05-2.395-1.169-6.015-2.936-6.214-6.26a1.032 1.032 0 1 1 2.062-.122c.127 2.12 2.976 3.51 5.058 4.525 1.067.52 1.91.932 2.419 1.422 1.336 1.3 1.294 3.377 1.15 4.5a1.033 1.033 0 0 1-1.023.902z" opacity="1" data-original="#003e79" class=""></path><path fill="#003e79" d="M42.962 91.757c-.536 0-.99-.415-1.028-.959-.155-2.146-2.459-4.672-3.984-6.343-.297-.327-.571-.627-.804-.896-1.744-1.995-.726-4.057.09-5.715.172-.347.346-.7.502-1.06a1.032 1.032 0 1 1 1.896.82c-.169.39-.358.776-.545 1.154-.89 1.803-1.153 2.567-.386 3.445.226.26.488.547.773.86 1.718 1.883 4.312 4.727 4.517 7.588a1.031 1.031 0 0 1-1.03 1.106zM58.117 91.757c-.444 0-.854-.287-.989-.734-.463-1.532-1.667-4.205-3.066-6.81a3.266 3.266 0 0 1 .458-3.729c2.185-2.475 5.601-7.717 5.636-7.77a1.031 1.031 0 1 1 1.73 1.125c-.143.222-3.532 5.423-5.82 8.015-.35.393-.42.938-.182 1.387 1.159 2.155 2.615 5.18 3.22 7.185a1.031 1.031 0 0 1-.987 1.331zM50.596 91.757a1.034 1.034 0 0 1-1.02-1.205c.111-.652.413-2.312.594-3.306.105-.55-1.04-2.291-1.653-3.226-.31-.47-.61-.928-.863-1.35-1.115-1.882-.387-8.583-.137-10.592a1.032 1.032 0 1 1 2.05.254c-.47 3.783-.656 8.406-.137 9.283.236.395.52.827.812 1.27 1.141 1.736 2.22 3.376 1.958 4.74a356.49 356.49 0 0 0-.587 3.272c-.085.504-.522.86-1.017.86zM77.025 91.757c-.55 0-1.006-.432-1.03-.987-.093-2.12-1.478-3.974-4.171-6.863-2.05-2.202-2.332-5.172-2.209-7.275.034-.568.53-.996 1.092-.97.568.033 1.003.522.97 1.091-.1 1.701.106 4.078 1.658 5.747 2.595 2.782 4.59 5.152 4.723 8.18a1.033 1.033 0 0 1-.986 1.076l-.047.001zM70.386 91.757a1.032 1.032 0 0 1-.97-1.389c.947-2.576.118-3.205-2.693-4.483-2.034-.918-3.219-2.754-3.855-4.132a1.033 1.033 0 0 1 1.876-.865c.488 1.059 1.376 2.46 2.831 3.117 2.438 1.107 5.467 2.483 3.78 7.076a1.033 1.033 0 0 1-.97.676zM20.738 61.156c-2.664 0-5.826-.436-7.297-2.28-1.003-1.258-1.102-2.902-.295-4.886.234-.574.584-1.155.921-1.716.616-1.022 1.252-2.08 1.008-2.774-.178-.504-.874-.992-2.015-1.412a1.032 1.032 0 1 1 .712-1.938c1.788.658 2.852 1.529 3.251 2.665.567 1.61-.365 3.159-1.187 4.524-.31.516-.604 1.003-.776 1.429-.762 1.87-.192 2.585-.004 2.819 1.425 1.787 6.676 1.68 9.652 1.191a1.034 1.034 0 0 1 .335 2.039c-.402.066-2.198.34-4.305.34zM84.131 69.554a1.033 1.033 0 0 1-.367-1.997 29.228 29.228 0 0 1 12.784-1.833c.568.045.993.542.949 1.11-.045.568-.548.99-1.11.95a27.123 27.123 0 0 0-11.889 1.703c-.12.046-.245.067-.367.067z" opacity="1" data-original="#003e79" class=""></path><path fill="#003e79" d="M91.498 91.755H3.533a1.032 1.032 0 1 1 0-2.065h87.965a1.032 1.032 0 1 1 0 2.065z" opacity="1" data-original="#003e79" class=""></path><path fill="#0082e6" d="M29.862 52.155c-.57 0-1.033-.462-1.033-1.032V43.8c0-.571.462-1.033 1.033-1.033h10.226c.571 0 1.033.462 1.033 1.033v4.127a1.032 1.032 0 1 1-2.065 0v-3.095h-8.161v6.29c0 .57-.462 1.032-1.033 1.032z" opacity="1" data-original="#0082e6" class=""></path><path fill="#0082e6" d="M50.32 35.462v7.93A344.746 344.746 0 0 0 40.087 47.7V35.462z" opacity="1" data-original="#0082e6" class=""></path><path fill="#0082e6" d="M50.325 44.644c-.571 0-1.033-.462-1.033-1.033V20.515c0-.571.462-1.033 1.033-1.033H60.55c.57 0 1.032.462 1.032 1.033v19.4a1.032 1.032 0 1 1-2.065 0V21.547h-8.16v22.064c0 .57-.463 1.033-1.033 1.033z" opacity="1" data-original="#0082e6" class=""></path><path fill="#0082e6" d="M70.786 24.083v14.642c-2.23-.537-4.75-.557-7.58.196a78.34 78.34 0 0 0-2.653.765V24.083z" opacity="1" data-original="#0082e6" class=""></path><path fill="#0082e6" d="M81.012 47.178c-.57 0-1.032-.462-1.032-1.033V17.09h-8.16v21.853a1.032 1.032 0 1 1-2.065 0V16.057c0-.57.461-1.032 1.032-1.032h10.225c.571 0 1.033.462 1.033 1.032v30.088c0 .57-.462 1.033-1.033 1.033z" opacity="1" data-original="#0082e6" class=""></path><path fill="#0082e6" d="M91.253 8.243V58.24c-.568-.588-1.167-1.208-1.756-1.827l-.062-.062-6.082-7.363-.01-.02a48.296 48.296 0 0 0-2.334-3.17V8.243z" opacity="1" data-original="#0082e6" class=""></path></g></svg>