<svg xmlns="http://www.w3.org/2000/svg" version="1.1" xmlns:xlink="http://www.w3.org/1999/xlink" width="512" height="512" x="0" y="0" viewBox="0 0 475.576 475" style="enable-background:new 0 0 512 512" xml:space="preserve" class=""><g><path fill="#bf5b00" d="m115.574 356.414-8 48 32 40 8 24h40l-8-24-32-48 24-32zm0 0" opacity="1" data-original="#bf5b00" class=""></path><path fill="#9196a9" d="m413.176 236.258-3.2-15.684 36.801-7.36 14.16-21.245 13.31 8.879-16 24a7.994 7.994 0 0 1-5.087 3.398zm0 0" opacity="1" data-original="#9196a9" class=""></path><path fill="#e38100" d="M11.574 468.414h40l-8-24v-40l24-16 24-32 64 16 40-8 40 8 32 64v16l8 16h32l-8-24-8-48 16-24 56-24 32-72 24 16 24-16-16-40v-40l-24-24-32 8-24 16-40 8-24 16-112 8-80 24-48 32-8 48-32 48 8 64zm0 0" opacity="1" data-original="#e38100" class=""></path><path fill="#bec3d1" d="m381.176 212.258-3.2-15.684 36.801-7.36 14.16-21.245 13.31 8.879-16 24a7.994 7.994 0 0 1-5.087 3.398zm0 0" opacity="1" data-original="#bec3d1" class=""></path><path fill="#2cb357" d="m439.184.29-20.598 10.296 25.672 8.55L328 77.259a8.015 8.015 0 0 0-3.586 3.582l-35.871 71.746-96.414-66.746a7.994 7.994 0 0 0-6.399-1.207 8.006 8.006 0 0 0-5.18 3.953l-46.796 85.797L0 241.215l7.152 14.32 136-68a8.057 8.057 0 0 0 3.45-3.328l43.734-80.191 96.687 66.937a7.996 7.996 0 0 0 6.543 1.172 7.989 7.989 0 0 0 5.168-4.172l38.801-77.601 113.871-56.903-8.558 25.656 20.601-10.296 12.125-36.395zm0 0" opacity="1" data-original="#2cb357" class=""></path></g></svg>