<svg xmlns="http://www.w3.org/2000/svg" version="1.1" xmlns:xlink="http://www.w3.org/1999/xlink" width="512" height="512" x="0" y="0" viewBox="0 0 160 160" style="enable-background:new 0 0 512 512" xml:space="preserve" class=""><g><path fill="#666666" d="m100.4 56.7 1.6-.9 2.2 5.9h4.3l-2.9-7.8 2.8-1.5h15.5l-1.1 9.3h4l1-8.2.4.2v8h4v-7.2l1.8-1.9h6.7c1.2 1.9 2.8 3.5 4.8 4.7l1.2.7c.1 0 .2.1.2.1h.1l2.5-.7c.2-.1.4-.3.3-.5l-.2-12.7c0-.4-.3-.8-.7-.9l-6.2-1.9-9.3-7.9c-.8-.7-1.9-1.1-2.9-1.1H98.6c-3.7 0-6.8 3-6.8 6.8v8.4h4v-8.4c0-.9.5-1.8 1.2-2.3v4.6c0 .6.1 1.3.3 1.8l1.5 5.3-2.3 7c-.1.2-.1.4-.1.6v5.5h4z" opacity="1" data-original="#666666"></path><g fill="#353535"><path d="m122.6 106.4.7 4.1c.1.4-.2.9-.6 1l-4.9 1.5h-.3c-.2 0-.3 0-.5-.1l-2.3-1.5c-3.8-2.4-7-5.5-9.4-9.3H92.1l-5.6 6.8v18.7h-6.3v-19.7l-4.1-6.1H41.7l-17.2 8.8v17h-6.3v-18.3c0-.4.1-.8.2-1.1l4.5-14-3-10.5c-.3-1.2-.5-2.4-.5-3.6v-13c-2.4 1.3-4 3.8-4 6.7v16.5c2.3 4.3 1.6 9.7-2 13.3-2.2-2.2-3.3-5.1-3.3-8 0-1.8.4-3.7 1.3-5.3V73.8c0-6.4 5.2-11.5 11.5-11.5h62.3c2.1 0 4.2.8 5.8 2.1L109.3 80l4.1 1.2c1.7-.3 3.3-.5 4.5-.8h.2c.7 0 1.1.8.8 1.4l-.6.9 4.6 1.4c.8.2.9 1.3.2 1.6l-3.1 1.6 2.2 3.4c.3.5.5 1 .4 1.6l-.1 1.1c-.6 4.4-.6 8.7.1 13z" fill="#353535" opacity="1" data-original="#353535"></path><path d="m71.7 105.8-6.6 20.3h6.7l4.4-13.5v-3.5l-2.3-3.3zM43.1 105.8h-.5l-10.1 5.1 5.7 15.2h6.6l-5.4-15.2z" fill="#353535" opacity="1" data-original="#353535"></path></g></g></svg>