<svg xmlns="http://www.w3.org/2000/svg" version="1.1" xmlns:xlink="http://www.w3.org/1999/xlink" width="512" height="512" x="0" y="0" viewBox="0 0 53 53" style="enable-background:new 0 0 512 512" xml:space="preserve" class=""><g><path fill="#aa6256" d="M26.984 17.942 2.508 32.166l-.008 4.48 23.516 13.578L50.492 36l.008-4.482z" opacity="1" data-original="#aa6256"></path><path fill="#aa6256" d="M50.5 31.518 50.492 36 26.016 50.224l.008-4.482z" opacity="1" data-original="#aa6256"></path><path fill="#5ec363" d="M26.02 47.953 2.504 34.376l-.004 2.27 23.516 13.578L50.492 36l.004-2.271z" opacity="1" data-original="#5ec363" class=""></path><path fill="#8a4852" d="m26.024 45.742-.008 4.482L2.5 36.647l.008-4.481z" opacity="1" data-original="#8a4852"></path><path fill="#dba660" d="M50.5 31.518 26.024 45.742 2.508 32.166l24.476-14.224z" opacity="1" data-original="#dba660" class=""></path><path fill="#bf7d5a" d="m45.384 34.492-1.297.75-23.512-13.574 1.287-.75zM38.9 38.26l-1.276.74-23.522-13.574 1.287-.75zM35.67 40.135l-1.287.75L10.86 27.31l1.287-.75zM32.438 42.019l-1.287.75L7.629 29.194l1.287-.75z" opacity="1" data-original="#bf7d5a"></path><path fill="#bf7d5a" d="m45.384 34.492-1.297.75-23.512-13.574 1.287-.75zM48.62 32.608l-1.287.75-23.512-13.585 1.287-.75zM42.138 36.377l-1.287.75L17.34 23.541l1.287-.75zM35.659 40.135l-1.287.75L10.86 27.3l1.287-.75zM29.196 43.903l-1.287.75L4.397 31.068l1.287-.75z" opacity="1" data-original="#bf7d5a"></path><path fill="#5ec363" d="M47.872 19.016c-.053 1.307.65 2.285-.429 4.444-.364.729-1.05 1.365-1.521 2.03-.088-.498.048-1.114.092-1.651.045-.243-.021-.075.193-.958.858-3.25.193-2.296.8-5.751.043-.236.08-.472.072-.714-.031-.437-.39-1.487-.014-3.044.05-.207.107-.407.178-.6l.007-.007c.036-.108.158-.53.186-.243.147 1.196.545 1.711.736 2.693.306 1.516-.268 2.8-.3 3.801z" opacity="1" data-original="#5ec363" class=""></path><path fill="#72d561" d="M47.63 18.938c-.055 1.33.658 2.31-.43 4.443-.314.622-.857 1.18-1.307 1.744 0-.429.086-.85.121-1.286.045-.243-.021-.075.193-.958.858-3.25.193-2.296.8-5.751.043-.236.08-.472.072-.714-.031-.437-.39-1.487-.014-3.044.05-.207.107-.407.178-.6l.007-.007c.121.823.515 1.551.686 2.372.297 1.536-.276 2.83-.307 3.8z" opacity="1" data-original="#72d561" class=""></path><path fill="#50b069" d="M46.11 23.557c.457-1.504.722-1.53.954-1.944.363-.575.115-1.31.03-2.021-.155-1.399 1.097-3.256.465-4.2.673.916-.496 2.85-.288 4.178.093.638.43 1.467.026 2.175-.18.343-.44.584-.529.916l-.17.484-.146.516z" opacity="1" data-original="#50b069" class=""></path><path fill="#5ec363" d="M45.922 25.49c-.447-.642-.174-3.138-.28-3.916-.223-1.688-1.86-2.445-.478-6.266.067-.175.246-.645.365-.922.014-.05.078-.285.128-.307.05-.014.093.065.136.193.436 1.419-.226 2.744.021 4.087.186 1.036.886 1.922 1.15 2.943.315 1.226-.394 3.279-1.042 4.187z" opacity="1" data-original="#5ec363" class=""></path><path fill="#78e75a" d="M46.122 25.168c-.32-.767-.098-3.064-.193-3.758-.216-1.624-2.116-2.774-.136-7.138.436 1.419-.226 2.744.021 4.087.186 1.036.886 1.922 1.15 2.943.28 1.086-.228 2.787-.842 3.866z" opacity="1" data-original="#78e75a" class=""></path><path fill="#50b069" d="M46.593 31.99c0 .05-.028.1-.1.144a.56.56 0 0 1-.5 0c-.071-.036-.107-.093-.107-.143.186-1.915-.472-3.844-.3-5.759.157-1.664.936-3.315.586-4.951-.233-1.09-1.2-2.66-.772-4.651a.133.133 0 0 0 .014-.05c-.204 2.785.68 3.342 1.036 4.815.372 1.565-.321 3.173-.414 4.78-.107 1.95.672 3.872.557 5.816z" opacity="1" data-original="#50b069" class=""></path><path fill="#5ec363" d="M43.859 22.816c-.067.024-.13-.01-.172-.066-.141-.195-.414-1.69-1.04-3.077-.664-1.497-1.548-2.519-1.779-3.114-.119-.31-.162-.639-.205-.963-.015-.137-.135-.766.015-.811.147-.052.343.534.4.63.22.381.453.753.701 1.11.105.158.215.31.344.45.138.147.3.27.453.41 1.01.92 1.497 2.303 1.65 3.662.086.725-.033 1.065-.367 1.77z" opacity="1" data-original="#5ec363" class=""></path><path fill="#72d561" d="M43.687 22.75c-.141-.195-.414-1.69-1.04-3.077-.664-1.497-1.548-2.519-1.779-3.114-.119-.31-.162-.639-.205-.963-.01-.086-.071-.406-.057-.615.1.166.2.438.234.5.22.382.453.754.7 1.112.106.157.215.31.344.448.143.148.3.276.453.41 1.011.92 1.498 2.304 1.65 3.663.072.605.03.923-.3 1.636z" opacity="1" data-original="#72d561" class=""></path><path fill="#72d561" d="M42.504 21.238c-.038.744.22 1.464.387 2.184.143.63.214 1.326-.024 1.913-.034.09-.077.176-.13.257-2.875-3.675-.517-5.104-1-7.101-.1-.425-.325-.806-.435-1.221-.245-.942.12-1.92.463-2.833.081-.224.162-.448.234-.682.114-.377.138-.758.21-1.135.08.171.147.348.2.53.224.82.176 1.726.31 2.555.152.96.52 1.903.424 2.872-.09.91-.586 1.745-.639 2.66z" opacity="1" data-original="#72d561" class=""></path><path fill="#78e75a" d="M42.504 21.238c-.038.744.22 1.464.387 2.184.143.63.214 1.326-.024 1.913-2.62-3.515-.367-4.933-.84-6.892-.1-.42-.329-.801-.434-1.22-.205-.783.02-1.613.296-2.376.052-.153.11-.3.167-.453.08-.224.162-.453.234-.682.057-.186.09-.372.119-.563.224.82.176 1.727.31 2.556.152.96.52 1.903.424 2.872-.09.91-.586 1.745-.639 2.66z" opacity="1" data-original="#78e75a" class=""></path><path fill="#50b069" d="M42.982 25.21c-.064.15-.129.333-.064.483.569 1.385.493 2.941.365 4.433 0 .033-.022.065-.065.097a.364.364 0 0 1-.333 0c-.053-.022-.075-.064-.075-.097.15-1.299.29-2.63-.053-3.896-1.326-4.79-.71-5.285-.398-7.687.033-.268.054-.526.054-.794a4.429 4.429 0 0 0-.129-1.245c.033.086.054.182.075.279.13.526.14 1.084.097 1.62-.172 2.198-.827 2.195.28 6.678.579-1.106 1.159-2.297 1.051-3.543-.075-.858-.472-1.642-.762-2.447 1.223 2.41 1.122 3.138.462 4.788-.172.45-.333.89-.505 1.33z" opacity="1" data-original="#50b069" class=""></path><path fill="#5ec363" d="M39.735 14.15c-.029.709.174 1.41.181 2.12.007.825-.246 1.643-.615 2.381-.37.738-1.064 1.383-1.542 2.056a2.113 2.113 0 0 1-.029-.37c0-.434.087-.86.123-1.302l.022-.152c.036-.275.109-.55.174-.818.87-3.3.181-2.247.81-5.826.122-.67.076-.794-.021-1.318-.191-1.087-.065-2.218.26-3.098l.007-.007c.037-.108.16-.535.189-.246.149 1.212.552 1.734.745 2.729.31 1.536-.272 2.836-.304 3.85z" opacity="1" data-original="#5ec363" class=""></path><path fill="#72d561" d="M39.49 14.07c-.03.709.173 1.411.18 2.12.015.826-.239 1.643-.615 2.382-.319.63-.869 1.194-1.325 1.766 0-.435.087-.862.123-1.303l.022-.152c.036-.275.109-.55.174-.818.87-3.3.181-2.247.81-5.826.122-.67.076-.794-.021-1.318-.191-1.087-.065-2.218.26-3.098l.007-.007c.123.835.522 1.572.695 2.403.3 1.557-.28 2.867-.31 3.85z" opacity="1" data-original="#72d561" class=""></path><path fill="#50b069" d="M37.95 18.75c.104-.342.23-.692.381-1.044.123-.368.424-.637.585-.925.368-.584.117-1.329.03-2.048-.156-1.417 1.112-3.299.472-4.256.382.52.158 1.497-.006 2.124-.562 2.135-.23 1.988-.084 3.181.048.367.023.784-.175 1.132-.182.347-.446.591-.536.928l-.173.49-.148.523z" opacity="1" data-original="#50b069" class=""></path><path fill="#5ec363" d="M37.962 20.381c-.065.116-.13.224-.203.326-.452-.65-.175-3.179-.282-3.967-.237-1.788-2.13-2.587-.116-7.28.093-.326.155-.457.268-.117.45 1.465-.235 2.746.022 4.14.188 1.05.897 1.947 1.165 2.982.282 1.1-.232 2.823-.854 3.916z" opacity="1" data-original="#5ec363" class=""></path><path fill="#78e75a" d="M37.962 20.381c-.239-.572-.145-1.657-.18-2.207-.037-.529.057-1.072-.015-1.6-.223-1.676-2.142-2.814-.138-7.23.45 1.464-.235 2.745.022 4.14.188 1.049.897 1.946 1.165 2.981.282 1.1-.232 2.823-.854 3.916z" opacity="1" data-original="#78e75a" class=""></path><path fill="#50b069" d="M38.44 27.293c0 .05-.03.102-.102.145a.567.567 0 0 1-.506 0c-.073-.036-.109-.094-.109-.145.188-1.94-.478-3.894-.304-5.833.16-1.687.948-3.359.594-5.016-.094-.442-.268-.862-.413-1.281-.774-2.186-.355-3.382-.355-3.482-.019.37-.054.505-.036 1.057.096 1.95.8 2.636 1.086 3.822.376 1.585-.326 3.213-.42 4.842-.108 1.976.68 3.922.565 5.891z" opacity="1" data-original="#50b069" class=""></path><path fill="#5ec363" d="M35.67 18c-.495.176-.136-1.88-2.552-5.504-.178-.27-.362-.536-.478-.836-.089-.23-.411-1.732-.193-1.797.15-.053.348.541.406.638.92 1.601 1.207 1.714 1.517 1.995 1.024.933 1.517 2.334 1.672 3.71.087.735-.034 1.08-.373 1.793z" opacity="1" data-original="#5ec363" class=""></path><path fill="#72d561" d="M35.495 17.932c-.276-.382-.295-2.313-2.377-5.436-.178-.27-.362-.536-.478-.836-.15-.392-.281-1.372-.266-1.599.102.17.203.445.237.507.222.387.46.764.71 1.126.304.456.423.533.807.87 1.024.932 1.517 2.333 1.672 3.71.073.613.03.935-.305 1.658z" opacity="1" data-original="#72d561" class=""></path><path fill="#72d561" d="M34.297 16.4c-.073 1.433 1.054 3.15.237 4.411-2.914-3.723-.524-5.17-1.015-7.194-.277-1.177-1.028-1.286.03-4.107.082-.227.164-.454.236-.69.116-.382.14-.769.213-1.15.473 1.003.342 2.04.517 3.125.154.972.526 1.928.43 2.909-.092.923-.595 1.768-.648 2.696z" opacity="1" data-original="#72d561" class=""></path><path fill="#78e75a" d="M34.297 16.4c-.071 1.392.91 2.817.367 4.15-2.654-3.56-.371-4.996-.85-6.981-.277-1.164-1.026-1.29.03-4.102.277-.769.302-.896.357-1.261.227.83.178 1.749.314 2.59.154.97.526 1.927.43 2.908-.092.923-.595 1.768-.648 2.696z" opacity="1" data-original="#78e75a" class=""></path><path fill="#50b069" d="M34.716 20.913c.577 1.403.5 2.98.37 4.491 0 .033-.022.066-.065.098-.19.106-.414-.003-.414-.098.153-1.315.294-2.664-.054-3.947-.478-1.73-.946-3.513-.794-5.296.134-1.47.716-3.035.316-4.557.124.333.245 1.037.174 1.925-.175 2.226-.838 2.223.282 6.764.588-1.12 1.175-2.327 1.066-3.589-.076-.87-.478-1.663-.772-2.479 1.239 2.44 1.136 3.179.468 4.85-.577 1.514-.661 1.641-.577 1.838z" opacity="1" data-original="#50b069" class=""></path><path fill="#5ec363" d="M31.603 9.454c-.054 1.324.66 2.315-.434 4.502-.37.739-1.064 1.383-1.541 2.056-.076-.428.037-1.276.115-1.824.088-.667.486-1.769.608-2.816.094-.738.058-1.49.13-2.229.091-.956.334-1.805.319-2.323-.031-.442-.395-1.506-.014-3.083.05-.21.108-.413.18-.608l.008-.008c.036-.108.159-.535.188-.246.05.413.137.804.275 1.202.166.506.37 1.006.47 1.527.31 1.536-.271 2.837-.304 3.85z" opacity="1" data-original="#5ec363" class=""></path><path fill="#72d561" d="M31.357 9.375c-.055 1.347.668 2.34-.434 4.502-.318.63-.868 1.194-1.324 1.766 0-1.636.592-2.9.752-4.27.094-.739.058-1.492.13-2.23.091-.956.334-1.805.319-2.323-.031-.442-.395-1.506-.014-3.083.05-.21.108-.413.18-.608l.008-.008c.043.297.123.587.217.876.166.507.369 1.006.478 1.527.3 1.557-.28 2.867-.312 3.85z" opacity="1" data-original="#72d561" class=""></path><path fill="#50b069" d="M29.818 14.055c.463-1.524.732-1.55.967-1.97.367-.583.117-1.327.03-2.047-.157-1.417 1.112-3.299.471-4.255.682.928-.502 2.887-.292 4.232.094.647.436 1.486.027 2.204-.182.347-.445.591-.536.928l-.173.49-.147.523z" opacity="1" data-original="#50b069" class=""></path><path fill="#5ec363" d="M29.628 16.012c-.453-.65-.176-3.179-.283-3.966-.227-1.71-1.886-2.478-.485-6.348.08-.21.16-.42.246-.63.037-.101.08-.202.123-.304.015-.05.08-.29.13-.31.051-.015.095.064.138.194.087.283.145.797.152.89.015.413-.029.833-.072 1.238l-.044.348c-.065.557-.115 1.114-.014 1.665.188 1.049.897 1.947 1.165 2.982.319 1.241-.4 3.32-1.056 4.24z" opacity="1" data-original="#5ec363" class=""></path><path fill="#78e75a" d="M29.83 15.686c-.324-.777-.099-3.103-.195-3.807-.109-.818-.601-1.534-.84-2.323-.41-1.318-.114-2.736.355-4.032.08-.21.159-.42.246-.63.029-.086.065-.166.101-.246.087.283.145.797.152.89.015.413-.029.833-.072 1.238l-.044.348c-.065.557-.115 1.114-.014 1.665.188 1.049.897 1.947 1.165 2.982.282 1.1-.231 2.822-.854 3.915z" opacity="1" data-original="#78e75a" class=""></path><path fill="#50b069" d="M30.308 22.598c0 .05-.03.102-.102.145-.213.124-.615.042-.615-.145.188-1.94-.477-3.894-.304-5.833.16-1.687.948-3.359.594-5.016-.223-1.045-1.113-2.521-.833-4.415.015-.102.03-.196.051-.297a.134.134 0 0 0 .015-.05v.079a4.941 4.941 0 0 0-.03.326c-.148 2.226.773 3.203 1.08 4.473.375 1.585-.327 3.213-.42 4.842-.11 1.976.68 3.923.564 5.891z" opacity="1" data-original="#50b069" class=""></path><path fill="#5ec363" d="M27.538 13.304c-.373.133-.306-1.142-1.228-3.184-.673-1.517-1.568-2.552-1.802-3.155-.089-.23-.41-1.732-.193-1.797.15-.053.348.541.406.638.238.413.76 1.26 1.058 1.58.343.366 1.807 1.243 2.13 4.126.088.734-.033 1.078-.371 1.792z" opacity="1" data-original="#5ec363" class=""></path><path fill="#72d561" d="M27.364 13.237c-.143-.197-.42-1.713-1.054-3.117-.673-1.517-1.568-2.552-1.802-3.155-.15-.392-.28-1.372-.265-1.599.101.17.202.445.236.507.237.413.76 1.26 1.058 1.58.44.454 1.812 1.283 2.131 4.126.073.613.03.936-.304 1.658z" opacity="1" data-original="#72d561" class=""></path><path fill="#72d561" d="M26.165 11.705c-.074 1.449 1.06 3.14.237 4.411-2.913-3.723-.524-5.17-1.014-7.194-.102-.43-.329-.816-.44-1.237-.317-1.218.365-2.45.705-3.56.116-.382.14-.769.213-1.15.474 1.003.342 2.04.517 3.126.154.97.527 1.927.43 2.908-.092.923-.594 1.768-.648 2.696z" opacity="1" data-original="#72d561" class=""></path><path fill="#78e75a" d="M26.165 11.705c-.07 1.392.91 2.817.368 4.15-2.654-3.56-.372-4.996-.85-6.981-.278-1.163-1.026-1.29.028-4.102.278-.768.303-.896.358-1.261.227.83.179 1.749.314 2.59.154.97.527 1.927.43 2.908-.092.923-.594 1.768-.648 2.696z" opacity="1" data-original="#78e75a" class=""></path><path fill="#50b069" d="M26.584 16.218c.577 1.403.5 2.98.37 4.492 0 .128-.266.183-.402.097-.055-.021-.076-.065-.076-.097.152-1.316.293-2.665-.055-3.948-.478-1.73-.946-3.513-.794-5.296.134-1.47.716-3.035.316-4.557.383 1.024.125 2.52-.065 3.578-.316 1.697.108 3.437.521 5.111.588-1.12 1.175-2.327 1.066-3.588-.076-.87-.478-1.664-.772-2.48 1.244 2.45 1.13 3.192.468 4.85-.577 1.514-.661 1.641-.577 1.838z" opacity="1" data-original="#50b069" class=""></path><path fill="#5ec363" d="M41.372 22.867c-.029.7.171 1.393.179 2.093.007.815-.243 1.622-.608 2.351-.364.729-1.05 1.365-1.521 2.029a2.086 2.086 0 0 1-.029-.364c0-.429.086-.85.121-1.286l.022-.15c.036-.272.107-.543.171-.808.172-.65.35-1.3.429-1.972.196-1.54-.109-1.047.372-3.78.042-.235.078-.47.07-.714-.03-.446-.493-1.866.165-3.643l.007-.007c.036-.108.158-.53.186-.243.147 1.196.545 1.711.736 2.693.306 1.516-.268 2.8-.3 3.801z" opacity="1" data-original="#5ec363" class=""></path><path fill="#72d561" d="M41.13 22.788c-.03.7.17 1.394.178 2.094.014.814-.236 1.622-.608 2.35-.314.622-.857 1.18-1.307 1.744 0-.429.086-.85.121-1.286l.022-.15c.036-.272.107-.543.171-.808.172-.65.35-1.3.429-1.972.196-1.54-.109-1.047.372-3.78.042-.235.078-.47.07-.714-.03-.446-.493-1.866.165-3.643l.007-.007c.121.823.515 1.551.686 2.372.297 1.536-.276 2.83-.307 3.8z" opacity="1" data-original="#72d561" class=""></path><path fill="#50b069" d="M39.61 27.408c.102-.337.226-.682.376-1.03.121-.364.418-.628.578-.914.362-.575.115-1.31.03-2.021-.155-1.399 1.097-3.256.465-4.2.377.513.156 1.477-.006 2.096-.555 2.107-.227 1.962-.083 3.14.048.362.023.774-.173 1.117-.18.342-.44.584-.529.916l-.17.484-.146.516z" opacity="1" data-original="#50b069" class=""></path><path fill="#5ec363" d="M39.622 29.019a3.528 3.528 0 0 1-.2.321c-.343-.493-.23-1.729-.265-2.33-.036-.528.057-1.056-.014-1.585-.198-1.492-1.481-2.232-.857-4.994.132-.623.377-1.304.621-1.894.036-.1.079-.2.122-.3.014-.05.078-.285.128-.307.05-.014.093.064.136.193.44 1.432-.23 2.724.021 4.087.186 1.036.886 1.922 1.15 2.943.28 1.086-.228 2.787-.842 3.866z" opacity="1" data-original="#5ec363" class=""></path><path fill="#78e75a" d="M39.622 29.019c-.236-.565-.143-1.637-.179-2.18-.036-.521.057-1.057-.014-1.578-.2-1.502-1.481-2.217-.858-5.002.145-.666.487-1.618.722-2.136.44 1.432-.23 2.724.021 4.087.186 1.036.886 1.922 1.15 2.943.28 1.086-.228 2.787-.842 3.866z" opacity="1" data-original="#78e75a" class=""></path><path fill="#50b069" d="M40.093 35.842c0 .05-.028.1-.1.143a.56.56 0 0 1-.5 0c-.071-.036-.107-.093-.107-.143.186-1.915-.472-3.844-.3-5.759.157-1.665.936-3.315.586-4.951-.22-1.031-1.1-2.488-.822-4.358.057-.402.064-.287.064-.343-.04.55-.025.353-.028.4-.147 2.197.762 3.162 1.064 4.415.372 1.565-.321 3.172-.414 4.78-.107 1.95.671 3.872.557 5.816z" opacity="1" data-original="#50b069" class=""></path><path fill="#5ec363" d="M37.359 26.667c-.067.024-.13-.01-.172-.066-.286-.395-.26-2.238-2.347-5.366-.47-.711-.556-.874-.677-1.788-.015-.137-.135-.766.015-.811.147-.053.343.534.4.63.22.381.453.753.701 1.11.105.158.215.31.344.449.138.148.3.272.453.41 1.01.92 1.497 2.304 1.65 3.663.086.725-.033 1.065-.367 1.77z" opacity="1" data-original="#5ec363" class=""></path><path fill="#72d561" d="M37.187 26.6c-.286-.394-.26-2.237-2.347-5.365-.47-.711-.556-.874-.677-1.788-.01-.086-.071-.406-.057-.616.1.167.2.44.234.501.219.382.453.754.7 1.111.106.158.215.31.344.449.143.148.3.276.453.41 1.011.92 1.498 2.303 1.65 3.663.072.605.03.923-.3 1.636z" opacity="1" data-original="#72d561" class=""></path><path fill="#72d561" d="M36.004 25.089c-.038.744.22 1.464.386 2.184.144.63.215 1.326-.023 1.912-.034.091-.077.177-.13.258-2.875-3.675-.517-5.104-1-7.101-.1-.425-.325-.806-.435-1.221-.245-.942.12-1.92.463-2.833.42-1.162.28-.96.443-1.817.468.99.338 2.014.51 3.085.153.959.52 1.903.425 2.871-.09.911-.586 1.746-.639 2.662z" opacity="1" data-original="#72d561" class=""></path><path fill="#78e75a" d="M36.004 25.089c-.038.744.22 1.464.386 2.184.144.63.215 1.326-.023 1.912-2.62-3.514-.367-4.932-.84-6.891-.1-.42-.329-.801-.434-1.221-.378-1.442.614-2.727.816-4.073.224.82.176 1.726.31 2.556.152.959.52 1.903.424 2.871-.09.911-.586 1.746-.639 2.662z" opacity="1" data-original="#78e75a" class=""></path><path fill="#50b069" d="M36.482 29.06c-.064.151-.129.333-.064.484.569 1.385.493 2.941.365 4.433 0 .032-.022.065-.065.097a.364.364 0 0 1-.333 0c-.053-.022-.075-.065-.075-.097.15-1.299.29-2.63-.053-3.896-1.326-4.79-.71-5.285-.398-7.687.033-.268.054-.526.054-.794a4.429 4.429 0 0 0-.129-1.245c.032.086.054.182.075.279.13.526.14 1.084.097 1.62-.172 2.198-.827 2.195.28 6.678.579-1.106 1.159-2.297 1.051-3.543-.075-.858-.472-1.642-.762-2.447 1.228 2.419 1.116 3.15.462 4.788-.172.45-.333.89-.505 1.33z" opacity="1" data-original="#50b069" class=""></path><path fill="#5ec363" d="M33.235 18c-.054 1.324.66 2.315-.434 4.502-.37.738-1.064 1.383-1.542 2.056-.045-.254-.05-.755.116-1.824.088-.667.485-1.769.608-2.816.094-.738.058-1.49.13-2.229.051-.536.152-1.064.246-1.6.122-.67.076-.793-.021-1.317-.191-1.087-.066-2.218.26-3.098l.007-.007c.037-.108.16-.535.189-.246.149 1.212.552 1.734.745 2.729.31 1.536-.272 2.836-.304 3.85z" opacity="1" data-original="#5ec363" class=""></path><path fill="#72d561" d="M32.989 17.92c-.055 1.348.668 2.34-.434 4.503-.319.63-.869 1.194-1.325 1.766 0-1.636.592-2.9.753-4.27.094-.739.058-1.492.13-2.23.051-.536.152-1.064.246-1.6.122-.67.076-.793-.021-1.317-.191-1.087-.066-2.218.26-3.098l.007-.007c.123.835.522 1.572.695 2.403.3 1.557-.28 2.867-.311 3.85z" opacity="1" data-original="#72d561" class=""></path><path fill="#50b069" d="M31.45 22.6c.463-1.523.732-1.55.966-1.969.368-.583.117-1.328.03-2.047-.157-1.418 1.112-3.3.472-4.256.682.929-.502 2.888-.292 4.233.051.35.156.699.202 1.072.154 1.17-.549 1.456-.71 2.06l-.174.49-.148.523z" opacity="1" data-original="#50b069" class=""></path><path fill="#5ec363" d="M31.26 24.558c-.453-.65-.177-3.179-.283-3.967-.238-1.794-2.13-2.586-.116-7.28.093-.326.155-.457.268-.117.087.283.145.796.152.89.014.413-.029.833-.072 1.238-.084.67-.18 1.356-.058 2.012.188 1.05.897 1.947 1.165 2.982.319 1.242-.4 3.322-1.057 4.242z" opacity="1" data-original="#5ec363" class=""></path><path fill="#78e75a" d="M31.462 24.232c-.325-.777-.1-3.104-.195-3.807-.22-1.655-2.14-2.818-.138-7.23.224.726.16 1.383.08 2.127-.084.67-.18 1.356-.058 2.012.188 1.05.897 1.947 1.165 2.982.282 1.1-.232 2.823-.854 3.916z" opacity="1" data-original="#78e75a" class=""></path><path fill="#50b069" d="M31.94 31.144c0 .05-.03.101-.102.145-.214.124-.615.041-.615-.145.188-1.94-.478-3.894-.304-5.834.16-1.686.948-3.358.594-5.015-.223-1.045-1.114-2.521-.833-4.415.058-.407.065-.29.065-.348v.08a6.39 6.39 0 0 0-.036.977c.098 1.994.784 2.572 1.086 3.821.376 1.585-.326 3.214-.42 4.843-.108 1.975.68 3.922.565 5.891z" opacity="1" data-original="#50b069" class=""></path><path fill="#5ec363" d="M29.17 21.85c-.373.133-.307-1.142-1.228-3.184-.673-1.517-1.569-2.552-1.802-3.155-.12-.314-.164-.647-.208-.976-.015-.138-.136-.776.015-.821.15-.053.348.541.406.638.237.413.76 1.26 1.058 1.58.343.366 1.807 1.243 2.13 4.126.088.734-.033 1.078-.372 1.792z" opacity="1" data-original="#5ec363" class=""></path><path fill="#72d561" d="M28.995 21.782c-.142-.196-.42-1.712-1.053-3.116-.673-1.517-1.569-2.552-1.802-3.155-.12-.314-.164-.647-.208-.976-.01-.087-.072-.41-.058-.623.102.169.203.444.237.507.237.413.76 1.26 1.058 1.58.44.454 1.812 1.283 2.13 4.126.074.613.031.935-.304 1.657z" opacity="1" data-original="#72d561" class=""></path><path fill="#72d561" d="M27.797 20.25c-.038.755.223 1.484.392 2.214.16.703.242 1.584-.155 2.198-2.914-3.723-.524-5.17-1.015-7.194-.274-1.165-1.027-1.29.03-4.107.425-1.176.284-.972.449-1.84.473 1.003.342 2.04.517 3.125.154.971.526 1.928.43 2.909-.092.923-.595 1.768-.648 2.696z" opacity="1" data-original="#72d561" class=""></path><path fill="#78e75a" d="M27.797 20.25c-.038.755.223 1.484.392 2.214.145.637.217 1.343-.025 1.937-2.654-3.56-.371-4.996-.85-6.981-.232-.974-.959-1.385-.14-3.643.197-.573.422-1.022.527-1.72.227.83.178 1.749.314 2.59.154.97.526 1.927.43 2.908-.092.923-.595 1.768-.648 2.696z" opacity="1" data-original="#78e75a" class=""></path><path fill="#50b069" d="M28.216 24.764c.577 1.403.5 2.98.37 4.491 0 .033-.022.066-.065.098-.19.106-.414-.003-.414-.098.153-1.315.294-2.664-.054-3.947-1.342-4.852-.718-5.353-.402-7.787.08-.666.096-1.41-.076-2.066.124.333.244 1.037.173 1.925-.174 2.226-.837 2.222.283 6.764.587-1.12 1.175-2.327 1.066-3.589-.076-.87-.479-1.663-.772-2.48 1.239 2.442 1.136 3.18.468 4.851-.577 1.514-.661 1.64-.577 1.838z" opacity="1" data-original="#50b069" class=""></path><path fill="#5ec363" d="M25.103 13.305c-.054 1.324.66 2.315-.434 4.502-.37.738-1.064 1.383-1.542 2.056-.089-.504.05-1.128.094-1.672l.022-.152c.036-.275.109-.55.174-.818.174-.659.355-1.317.434-1.998.199-1.56-.11-1.061.377-3.828.121-.67.075-.794-.022-1.318-.19-1.087-.065-2.218.26-3.098l.008-.007c.262-.786.086-.136.463.956.166.506.369 1.006.47 1.527.31 1.536-.271 2.836-.304 3.85z" opacity="1" data-original="#5ec363" class=""></path><path fill="#72d561" d="M24.857 13.226c-.055 1.347.668 2.34-.434 4.502-.318.63-.869 1.194-1.325 1.766 0-.324.115-1.24.145-1.455.036-.275.109-.55.174-.818.174-.659.355-1.317.434-1.998.199-1.56-.11-1.061.377-3.828.121-.67.075-.794-.022-1.318-.19-1.087-.065-2.218.26-3.098l.008-.007c.122.835.521 1.572.694 2.403.301 1.557-.28 2.867-.31 3.85z" opacity="1" data-original="#72d561" class=""></path><path fill="#50b069" d="M23.318 17.906c.463-1.524.732-1.55.967-1.97.367-.583.117-1.328.03-2.047-.16-1.448 1.121-3.285.471-4.256.684.931-.506 2.861-.292 4.233.051.35.157.699.202 1.072.154 1.17-.549 1.456-.71 2.06l-.174.49-.148.523z" opacity="1" data-original="#50b069" class=""></path><path fill="#5ec363" d="M23.127 19.863c-.347-.5-.231-1.752-.267-2.36-.037-.535.058-1.071-.015-1.607-.108-.817-.6-1.534-.84-2.323-.502-1.615.054-3.395.724-4.958.015-.05.08-.29.13-.311.165-.047.278.921.29 1.086.04 1.122-.325 2.194-.13 3.25.188 1.049.897 1.946 1.165 2.981.319 1.242-.4 3.322-1.057 4.242z" opacity="1" data-original="#5ec363" class=""></path><path fill="#78e75a" d="M23.33 19.537c-.239-.572-.145-1.657-.18-2.207-.037-.529.057-1.072-.015-1.6-.235-1.764-2.158-2.779-.138-7.23.458 1.487-.24 2.72.022 4.14.188 1.049.897 1.946 1.165 2.981.282 1.1-.232 2.823-.854 3.916z" opacity="1" data-original="#78e75a" class=""></path><path fill="#50b069" d="M23.808 26.45c0 .267-.717.267-.717 0 .188-1.94-.477-3.895-.304-5.834.16-1.687.948-3.359.594-5.016-.094-.442-.268-.862-.413-1.281-.78-2.204-.354-3.382-.354-3.482-.205 2.795.7 3.432 1.049 4.879.376 1.585-.326 3.213-.42 4.842-.108 1.976.68 3.922.565 5.891z" opacity="1" data-original="#50b069" class=""></path><path fill="#5ec363" d="M21.038 17.155c-.373.133-.306-1.142-1.228-3.184-.673-1.517-1.568-2.552-1.802-3.155-.12-.314-.164-.647-.207-.976-.016-.138-.137-.776.014-.821.15-.053.348.541.406.638.924 1.607 1.189 1.698 1.517 1.995 1.024.933 1.517 2.334 1.672 3.71.087.735-.034 1.08-.372 1.793z" opacity="1" data-original="#5ec363" class=""></path><path fill="#72d561" d="M20.864 17.088c-.143-.197-.42-1.713-1.054-3.117-.673-1.517-1.568-2.552-1.802-3.155-.15-.392-.281-1.372-.266-1.599.102.17.203.445.237.507.237.413.76 1.26 1.058 1.58.44.454 1.812 1.283 2.131 4.126.073.613.03.935-.304 1.658z" opacity="1" data-original="#72d561" class=""></path><path fill="#72d561" d="M19.665 15.556c-.074 1.449 1.06 3.14.237 4.411-2.914-3.723-.524-5.17-1.014-7.194-.278-1.177-1.03-1.286.029-4.107.425-1.176.284-.972.449-1.84.474 1.003.342 2.04.517 3.125.154.972.526 1.928.43 2.909-.092.923-.594 1.768-.648 2.696z" opacity="1" data-original="#72d561" class=""></path><path fill="#78e75a" d="M19.665 15.556c-.071 1.392.91 2.817.368 4.15-2.654-3.56-.372-4.996-.85-6.981-.278-1.164-1.026-1.29.028-4.102.278-.769.303-.896.358-1.261.227.83.179 1.749.314 2.59.154.97.526 1.927.43 2.908-.092.923-.594 1.768-.648 2.696z" opacity="1" data-original="#78e75a" class=""></path><path fill="#50b069" d="M20.15 19.58c-.392.914.697.43.304 4.98 0 .033-.022.066-.065.098-.19.106-.413-.003-.413-.098.152-1.315.293-2.664-.055-3.947-1.342-4.852-.718-5.353-.402-7.787.08-.666.096-1.41-.076-2.066.39 1.044.112 2.594-.066 3.578-.315 1.697.11 3.436.522 5.111.588-1.12 1.175-2.327 1.066-3.589-.076-.87-.478-1.663-.772-2.479 1.245 2.452 1.13 3.193.468 4.85-.174.457-.337.903-.511 1.349z" opacity="1" data-original="#50b069" class=""></path><path fill="#5ec363" d="M34.87 26.604c-.028.7.172 1.393.18 2.093.006.815-.244 1.622-.608 2.351-.365.729-1.05 1.365-1.522 2.03a2.086 2.086 0 0 1-.029-.365c0-.429.086-.85.122-1.286l.021-.15c.036-.272.107-.543.172-.808.857-3.25.193-2.296.8-5.751.043-.236.079-.472.071-.715-.027-.392-.484-1.892.165-3.643l.007-.007c.036-.108.157-.53.186-.243.147 1.196.545 1.711.736 2.693.305 1.516-.269 2.8-.3 3.801z" opacity="1" data-original="#5ec363" class=""></path><path fill="#72d561" d="M34.628 26.526c-.029.7.171 1.393.178 2.093.014.814-.236 1.622-.607 2.35-.314.622-.857 1.18-1.308 1.744 0-.429.086-.85.122-1.286l.021-.15c.036-.272.107-.543.172-.808.857-3.25.193-2.296.8-5.751.043-.236.079-.472.071-.715-.027-.392-.484-1.892.165-3.643l.007-.007c.043.293.121.578.214.864.165.5.365.993.472 1.508.296 1.536-.277 2.83-.307 3.8z" opacity="1" data-original="#72d561" class=""></path><path fill="#50b069" d="M33.108 31.145c.103-.337.227-.682.377-1.03.12-.364.418-.628.577-.914.363-.575.116-1.31.03-2.021-.155-1.399 1.098-3.256.466-4.2.217.295.223.686.195 1.037-.029.36-.11.712-.202 1.059-.554 2.107-.226 1.962-.082 3.14.047.362.022.774-.173 1.117-.18.343-.44.584-.53.916l-.17.484-.146.516z" opacity="1" data-original="#50b069" class=""></path><path fill="#5ec363" d="M33.12 32.756a3.528 3.528 0 0 1-.2.321c-.343-.493-.229-1.729-.264-2.329-.036-.529.057-1.057-.015-1.586-.242-1.824-2.112-2.529-.114-7.188.014-.05.079-.285.129-.307.162-.046.273.91.286 1.072.038 1.104-.32 2.169-.13 3.208.187 1.036.887 1.922 1.151 2.943.279 1.086-.229 2.787-.843 3.866z" opacity="1" data-original="#5ec363" class=""></path><path fill="#78e75a" d="M33.12 32.756c-.236-.565-.143-1.637-.178-2.18-.036-.521.057-1.057-.015-1.578-.215-1.624-2.116-2.774-.136-7.138.445 1.446-.232 2.71.022 4.087.186 1.036.886 1.922 1.15 2.943.279 1.086-.229 2.787-.843 3.866z" opacity="1" data-original="#78e75a" class=""></path><path fill="#50b069" d="M33.592 39.579c0 .05-.029.1-.1.143a.56.56 0 0 1-.5 0c-.072-.036-.108-.093-.108-.143.186-1.915-.471-3.844-.3-5.759.157-1.665.936-3.315.586-4.951-.195-.916-1.19-2.705-.771-4.651a.133.133 0 0 0 .014-.05c-.2 2.723.71 3.464 1.036 4.815.371 1.565-.322 3.172-.415 4.78-.107 1.95.672 3.872.558 5.816z" opacity="1" data-original="#50b069" class=""></path><path fill="#5ec363" d="M30.857 30.404c-.337.12-.38-1.299-1.211-3.143-.665-1.497-1.549-2.519-1.78-3.114-.087-.228-.405-1.71-.19-1.774.148-.053.343.534.4.63.235.408.751 1.243 1.045 1.559.138.148.3.272.453.41 1.011.92 1.498 2.304 1.65 3.663.087.725-.033 1.065-.367 1.77z" opacity="1" data-original="#5ec363" class=""></path><path fill="#72d561" d="M30.685 30.338c-.14-.195-.414-1.69-1.04-3.077-.664-1.497-1.548-2.519-1.778-3.114-.15-.388-.278-1.355-.263-1.579.1.167.2.44.234.501.871 1.515 1.146 1.662 1.498 1.97 1.01.92 1.497 2.303 1.65 3.663.072.605.03.923-.3 1.636z" opacity="1" data-original="#72d561" class=""></path><path fill="#72d561" d="M29.503 28.826c-.073 1.414 1.04 3.11.233 4.354-2.876-3.675-.517-5.104-1.001-7.101-.1-.425-.325-.806-.434-1.221-.205-.787.019-1.617.295-2.38.665-1.873.393-1.12.611-2.27.467.99.338 2.014.51 3.085.153.959.52 1.903.425 2.871-.09.911-.587 1.746-.64 2.662z" opacity="1" data-original="#72d561" class=""></path><path fill="#78e75a" d="M29.503 28.826c-.07 1.374.897 2.78.362 4.097-2.62-3.515-.367-4.933-.84-6.892-.229-.961-.946-1.367-.138-3.596.167-.485.418-1.02.52-1.698.224.82.177 1.727.31 2.556.153.959.52 1.903.425 2.871-.09.911-.587 1.746-.64 2.662z" opacity="1" data-original="#78e75a" class=""></path><path fill="#50b069" d="M29.916 33.28c.57 1.386.494 2.942.365 4.434 0 .033-.021.065-.064.097a.364.364 0 0 1-.333 0c-.054-.022-.075-.064-.075-.097.15-1.299.29-2.63-.054-3.896-1.325-4.79-.709-5.285-.397-7.687.079-.657.095-1.393-.075-2.04.386 1.03.11 2.561-.065 3.533-.311 1.674.108 3.392.516 5.045.58-1.106 1.159-2.297 1.052-3.543-.076-.858-.473-1.642-.763-2.447 1.223 2.409 1.122 3.137.462 4.788-.57 1.494-.652 1.62-.569 1.814z" opacity="1" data-original="#50b069" class=""></path><path fill="#5ec363" d="M26.734 21.737c-.054 1.324.659 2.315-.435 4.502-.369.738-1.064 1.383-1.541 2.056-.106-.6.108-1.897.29-2.642.699-2.654.4-2.562.564-4.227.09-.956.333-1.805.318-2.323-.028-.398-.49-1.917.167-3.692l.007-.007c.036-.108.16-.535.188-.246.15 1.212.552 1.734.746 2.729.31 1.536-.272 2.836-.304 3.85z" opacity="1" data-original="#5ec363" class=""></path><path fill="#72d561" d="M26.488 21.658c-.055 1.347.667 2.34-.435 4.502-.318.63-.868 1.194-1.324 1.766 0-1.674.588-2.865.753-4.27.094-.739.057-1.492.13-2.23.09-.956.333-1.805.318-2.323-.028-.398-.49-1.917.167-3.692l.007-.007c.122.835.522 1.572.695 2.403.3 1.557-.28 2.867-.311 3.85z" opacity="1" data-original="#72d561" class=""></path><path fill="#50b069" d="M24.949 26.338c.462-1.524.731-1.55.966-1.97.367-.583.117-1.328.03-2.047-.16-1.448 1.122-3.285.472-4.256.683.931-.507 2.861-.292 4.233.05.35.156.699.202 1.072.153 1.17-.55 1.456-.711 2.06l-.174.49-.147.523z" opacity="1" data-original="#50b069" class=""></path><path fill="#5ec363" d="M24.758 28.295c-.452-.65-.176-3.179-.283-3.967-.108-.817-.6-1.534-.84-2.323-.473-1.52-.008-3.183.602-4.654.036-.101.08-.202.123-.304.014-.05.08-.29.13-.311.164-.047.277.921.29 1.086.039 1.118-.325 2.197-.13 3.25.187 1.049.897 1.946 1.164 2.981.319 1.242-.4 3.322-1.056 4.242z" opacity="1" data-original="#5ec363" class=""></path><path fill="#78e75a" d="M24.96 27.969c-.324-.777-.099-3.103-.195-3.807-.109-.818-.6-1.534-.84-2.323-.484-1.555.032-3.43.702-4.908.447 1.451-.232 2.76.022 4.14.188 1.05.898 1.947 1.165 2.982.283 1.1-.231 2.823-.854 3.916z" opacity="1" data-original="#78e75a" class=""></path><path fill="#50b069" d="M25.438 34.881c0 .268-.716.268-.716 0 .188-1.94-.478-3.894-.304-5.834.159-1.686.948-3.358.593-5.015-.094-.442-.268-.862-.412-1.281-.774-2.186-.355-3.382-.355-3.482.003.13-.149 1.117.145 2.352.057.24.13.478.217.71.224.608.535 1.187.687 1.816.377 1.586-.325 3.214-.42 4.843-.108 1.975.68 3.922.565 5.891z" opacity="1" data-original="#50b069" class=""></path><path fill="#5ec363" d="M22.668 25.587c-.068.024-.13-.01-.174-.068a.544.544 0 0 1-.082-.178c-.276-.996-.546-1.996-.971-2.938-.674-1.517-1.569-2.552-1.802-3.155-.121-.314-.165-.647-.208-.976-.016-.138-.137-.776.014-.821.15-.053.348.541.406.638.222.386.46.763.71 1.125.344.515.474.568.807.87 1.024.933 1.517 2.334 1.672 3.71.087.735-.033 1.08-.372 1.793z" opacity="1" data-original="#5ec363" class=""></path><path fill="#72d561" d="M22.822 24.48c-.033.363-.173.706-.328 1.04a.544.544 0 0 1-.082-.18c-.276-.995-.546-1.995-.971-2.937-.674-1.517-1.569-2.552-1.802-3.155-.152-.393-.282-1.373-.266-1.599.101.17.203.444.237.507.882 1.535 1.16 1.684 1.517 1.996 1.024.932 1.517 2.333 1.671 3.71.024.203.039.41.024.619z" opacity="1" data-original="#72d561" class=""></path><path fill="#72d561" d="M21.296 23.988c-.075 1.456 1.06 3.14.236 4.411-2.913-3.723-.524-5.17-1.014-7.194-.278-1.177-1.029-1.286.029-4.107.426-1.176.284-.972.45-1.84.473 1.003.342 2.04.516 3.125.155.971.527 1.928.43 2.909-.092.923-.594 1.768-.647 2.696z" opacity="1" data-original="#72d561" class=""></path><path fill="#78e75a" d="M21.296 23.988c-.072 1.392.909 2.817.367 4.15-2.654-3.56-.372-4.996-.85-6.981-.278-1.164-1.026-1.29.029-4.102.277-.769.302-.896.357-1.261.227.83.179 1.749.314 2.59.155.97.527 1.927.43 2.908-.092.923-.594 1.768-.647 2.696z" opacity="1" data-original="#78e75a" class=""></path><path fill="#50b069" d="M21.715 28.501c.576 1.403.5 2.98.37 4.491 0 .033-.022.066-.066.098-.19.106-.413-.003-.413-.098.152-1.315.293-2.664-.055-3.947-.478-1.73-.946-3.513-.793-5.296.133-1.47.715-3.035.315-4.557.391 1.044.112 2.594-.065 3.578-.316 1.696.108 3.436.522 5.111.587-1.12 1.174-2.327 1.065-3.589-.076-.87-.478-1.663-.772-2.479.36.707.729 1.446.881 2.23.065.304.087.62.065.945-.121 1.291-1.219 3.13-1.054 3.513z" opacity="1" data-original="#50b069" class=""></path><path fill="#5ec363" d="M18.602 17.042c-.054 1.324.659 2.315-.435 4.502-.369.739-1.063 1.383-1.541 2.056-.076-.428.038-1.276.116-1.824.087-.667.485-1.769.608-2.816.199-1.56-.11-1.061.376-3.828.122-.67.075-.794-.022-1.318-.19-1.087-.065-2.218.26-3.097l.008-.008c.036-.108.16-.535.188-.246.15 1.212.552 1.734.746 2.729.31 1.536-.272 2.836-.304 3.85z" opacity="1" data-original="#5ec363" class=""></path><path fill="#72d561" d="M18.356 16.963c-.055 1.347.668 2.34-.434 4.502-.319.63-.87 1.194-1.325 1.766 0-1.72.585-2.84.753-4.27.199-1.562-.11-1.062.376-3.83.122-.67.075-.793-.022-1.317-.19-1.087-.065-2.218.26-3.097l.008-.008c.122.835.522 1.572.695 2.403.3 1.557-.28 2.867-.311 3.85z" opacity="1" data-original="#72d561" class=""></path><path fill="#50b069" d="M16.817 21.643c.462-1.524.731-1.55.966-1.97.367-.583.117-1.327.03-2.047-.16-1.448 1.122-3.284.472-4.256.381.52.158 1.497-.006 2.124-.563 2.135-.23 1.988-.084 3.181.153 1.17-.55 1.456-.711 2.06l-.174.49-.147.523z" opacity="1" data-original="#50b069" class=""></path><path fill="#5ec363" d="M16.626 23.6c-.452-.65-.176-3.179-.282-3.966-.246-1.848-2.14-2.562-.116-7.282.014-.05.08-.29.13-.31.05-.015.094.064.138.194.446 1.452-.233 2.76.021 4.14.188 1.05.898 1.947 1.166 2.982.318 1.242-.4 3.322-1.057 4.242z" opacity="1" data-original="#5ec363" class=""></path><path fill="#78e75a" d="M16.829 23.274c-.325-.777-.1-3.103-.196-3.807-.226-1.703-2.15-2.793-.137-7.23.446 1.45-.233 2.759.021 4.14.188 1.049.898 1.946 1.166 2.981.282 1.1-.232 2.823-.854 3.916z" opacity="1" data-original="#78e75a" class=""></path><path fill="#50b069" d="M17.306 30.186c0 .268-.716.268-.716 0 .188-1.94-.478-3.894-.304-5.833.159-1.687.948-3.359.593-5.016-.094-.442-.268-.862-.412-1.281-.777-2.193-.355-3.382-.355-3.482v.08c-.31 2.325.736 3.498 1.05 4.799.376 1.585-.326 3.213-.42 4.842-.109 1.976.68 3.923.564 5.891z" opacity="1" data-original="#50b069" class=""></path><path fill="#5ec363" d="M14.536 20.892c-.494.177-.136-1.88-2.551-5.503-.179-.27-.362-.536-.478-.836-.121-.314-.165-.647-.208-.976-.01-.087-.073-.41-.058-.623 0-.101.024-.184.072-.198.15-.053.348.541.406.638.223.386.46.763.71 1.125.107.16.218.315.348.455.343.366 1.807 1.243 2.131 4.126.087.734-.033 1.078-.372 1.792z" opacity="1" data-original="#5ec363" class=""></path><path fill="#72d561" d="M14.362 20.825c-.277-.382-.295-2.313-2.377-5.436-.179-.27-.362-.536-.478-.836-.121-.314-.165-.647-.208-.976-.01-.087-.073-.41-.058-.623.101.17.203.445.237.507.222.387.459.764.71 1.126.106.16.217.314.348.454.439.454 1.811 1.283 2.13 4.126.073.613.031.936-.304 1.658z" opacity="1" data-original="#72d561" class=""></path><path fill="#72d561" d="M13.164 19.293c-.075 1.456 1.06 3.14.237 4.411-2.914-3.723-.525-5.17-1.015-7.194-.101-.43-.328-.816-.44-1.237-.207-.797.02-1.638.3-2.41.053-.15.111-.305.169-.46.082-.227.164-.454.237-.69.116-.382.14-.769.212-1.15.082.173.15.352.203.536.227.83.179 1.749.314 2.59.155.97.527 1.927.43 2.908-.091.923-.594 1.768-.647 2.696z" opacity="1" data-original="#72d561" class=""></path><path fill="#78e75a" d="M13.164 19.293c-.071 1.392.91 2.817.367 4.15-2.654-3.56-.371-4.996-.85-6.981-.102-.425-.334-.812-.44-1.237-.208-.793.02-1.633.3-2.406.053-.155.11-.305.169-.46.082-.226.164-.458.236-.69.058-.189.092-.377.121-.57.227.83.179 1.749.314 2.59.155.97.527 1.927.43 2.908-.091.923-.594 1.768-.647 2.696z" opacity="1" data-original="#78e75a" class=""></path><path fill="#50b069" d="M13.583 23.806c.576 1.403.5 2.98.37 4.492 0 .032-.022.065-.066.097-.19.106-.413-.003-.413-.097.152-1.316.294-2.665-.054-3.948-1.623-5.862-.348-5.928-.348-8.591a4.486 4.486 0 0 0-.13-1.262c.124.333.244 1.037.173 1.925-.174 2.226-.838 2.223.283 6.764.587-1.12 1.174-2.327 1.066-3.588-.077-.87-.479-1.664-.772-2.48 1.238 2.44 1.136 3.179.467 4.85-.577 1.514-.66 1.641-.576 1.838z" opacity="1" data-original="#50b069" class=""></path><path fill="#5ec363" d="M28.376 30.362c-.053 1.307.65 2.285-.429 4.444-.364.729-1.05 1.365-1.521 2.03-.075-.423.037-1.26.114-1.801.087-.658.48-1.746.6-2.78.196-1.54-.109-1.047.372-3.779.12-.662.074-.784-.022-1.3-.188-1.074-.064-2.19.257-3.058l.007-.007c.26-.776.085-.135.458.943.164.5.364.993.464 1.507.306 1.516-.268 2.8-.3 3.801z" opacity="1" data-original="#5ec363" class=""></path><path fill="#72d561" d="M28.133 30.284c-.054 1.33.66 2.31-.428 4.444-.315.621-.858 1.178-1.308 1.743 0-1.697.578-2.803.743-4.215.196-1.542-.109-1.048.372-3.78.042-.236.078-.471.071-.714-.029-.404-.484-1.893.164-3.644l.007-.007c.121.824.515 1.551.686 2.372.297 1.536-.276 2.83-.307 3.8z" opacity="1" data-original="#72d561" class=""></path><path fill="#50b069" d="M26.614 34.903c.457-1.504.722-1.53.954-1.943.363-.576.115-1.311.03-2.022-.155-1.399 1.097-3.256.465-4.2.673.916-.496 2.85-.288 4.178.05.346.154.69.2 1.058.15 1.155-.543 1.437-.702 2.033l-.172.484-.145.517z" opacity="1" data-original="#50b069" class=""></path><path fill="#5ec363" d="M26.426 36.835c-.447-.641-.174-3.137-.28-3.915-.236-1.785-2.097-2.564-.113-7.187.091-.321.152-.45.264-.115.445 1.447-.232 2.71.021 4.087.186 1.036.886 1.922 1.15 2.943.315 1.226-.394 3.28-1.042 4.187z" opacity="1" data-original="#5ec363" class=""></path><path fill="#78e75a" d="M26.626 36.514c-.32-.767-.098-3.064-.193-3.758-.224-1.683-2.114-2.778-.136-7.138.445 1.447-.232 2.71.021 4.087.186 1.036.886 1.922 1.15 2.943.28 1.086-.228 2.787-.842 3.866z" opacity="1" data-original="#78e75a" class=""></path><path fill="#50b069" d="M27.097 43.337c0 .05-.028.1-.1.143a.56.56 0 0 1-.5 0c-.071-.036-.107-.093-.107-.143.186-1.915-.472-3.844-.3-5.759.157-1.664.936-3.315.586-4.951-.093-.436-.265-.85-.407-1.265-.765-2.157-.35-3.336-.35-3.436.01.118-.231 1.455.357 3.022.221.6.528 1.172.678 1.793.372 1.565-.321 3.173-.414 4.78-.107 1.95.672 3.872.557 5.816z" opacity="1" data-original="#50b069" class=""></path><path fill="#5ec363" d="M24.363 34.162c-.366.13-.327-1.182-1.212-3.142-.357-.806-.82-1.56-1.306-2.29-.47-.71-.557-.874-.678-1.788-.015-.137-.135-.766.015-.811.147-.052.343.534.4.63.913 1.586 1.174 1.676 1.498 1.97 1.01.92 1.497 2.303 1.65 3.662.086.725-.033 1.065-.367 1.77z" opacity="1" data-original="#5ec363" class=""></path><path fill="#72d561" d="M24.191 34.096c-.141-.195-.414-1.69-1.04-3.076-.664-1.498-1.548-2.52-1.779-3.115-.149-.387-.277-1.355-.262-1.578.1.167.2.438.234.5.874 1.521 1.14 1.657 1.497 1.97 1.011.92 1.498 2.304 1.65 3.663.072.605.03.923-.3 1.636z" opacity="1" data-original="#72d561" class=""></path><path fill="#72d561" d="M23.008 32.584c-.073 1.43 1.046 3.1.234 4.354-2.876-3.675-.518-5.104-1.002-7.101-.1-.425-.324-.806-.434-1.221-.313-1.202.361-2.419.697-3.515.114-.377.138-.758.21-1.135.08.171.147.348.2.53.224.82.176 1.726.31 2.556.152.958.52 1.902.424 2.87-.09.912-.586 1.746-.639 2.662z" opacity="1" data-original="#72d561" class=""></path><path fill="#78e75a" d="M23.008 32.584c-.07 1.374.898 2.78.363 4.097-2.62-3.515-.367-4.933-.84-6.892-.271-1.138-1.012-1.272.029-4.049.081-.224.162-.453.234-.682.057-.186.09-.372.119-.563.224.82.176 1.727.31 2.557.152.958.52 1.902.424 2.87-.09.912-.586 1.746-.639 2.662z" opacity="1" data-original="#78e75a" class=""></path><path fill="#50b069" d="M23.486 36.556c-.387.903.689.424.3 4.916 0 .033-.02.065-.064.097a.364.364 0 0 1-.332 0c-.054-.021-.076-.064-.076-.097.15-1.298.29-2.63-.053-3.896-1.602-5.787-.344-5.852-.344-8.48a4.429 4.429 0 0 0-.129-1.246c.124.328.242 1.023.172 1.9-.172 2.197-.827 2.194.28 6.677.579-1.106 1.159-2.297 1.051-3.543-.075-.858-.472-1.642-.762-2.447 1.229 2.42 1.116 3.152.462 4.788-.172.45-.333.89-.505 1.33z" opacity="1" data-original="#50b069" class=""></path><path fill="#5ec363" d="M20.24 25.495c-.055 1.324.658 2.315-.435 4.502-.37.739-1.064 1.383-1.542 2.056-.218-1.238.578-3.392.724-4.64.199-1.56-.11-1.061.377-3.828.121-.67.075-.794-.022-1.318-.191-1.087-.065-2.218.26-3.097l.007-.008c.263-.786.087-.136.464.956.166.506.369 1.006.47 1.527.31 1.536-.272 2.836-.304 3.85z" opacity="1" data-original="#5ec363" class=""></path><path fill="#72d561" d="M19.993 25.416c-.055 1.347.668 2.34-.434 4.502-.319.63-.869 1.194-1.325 1.766 0-1.608.597-2.939.753-4.27.199-1.562-.11-1.062.377-3.83.121-.67.075-.793-.022-1.317-.191-1.087-.065-2.218.26-3.097l.007-.008c.123.835.522 1.572.695 2.403.3 1.557-.28 2.867-.31 3.85z" opacity="1" data-original="#72d561" class=""></path><path fill="#50b069" d="M18.454 30.096c.463-1.524.732-1.55.966-1.97.368-.583.117-1.327.03-2.047-.156-1.417 1.112-3.299.472-4.256.382.52.158 1.497-.006 2.124-.562 2.135-.23 1.988-.084 3.181.154 1.17-.549 1.456-.71 2.06l-.174.49-.148.523z" opacity="1" data-original="#50b069" class=""></path><path fill="#5ec363" d="M18.263 32.053c-.452-.65-.175-3.179-.282-3.966-.244-1.842-2.141-2.56-.116-7.282.093-.325.155-.455.268-.116.443 1.44-.23 2.775.022 4.14.188 1.05.897 1.947 1.165 2.982.319 1.242-.4 3.322-1.057 4.242z" opacity="1" data-original="#5ec363" class=""></path><path fill="#78e75a" d="M18.466 31.727c-.325-.777-.1-3.103-.195-3.807-.235-1.763-2.16-2.775-.138-7.23.443 1.44-.23 2.774.022 4.14.188 1.049.897 1.946 1.165 2.981.282 1.1-.232 2.823-.854 3.916z" opacity="1" data-original="#78e75a" class=""></path><path fill="#50b069" d="M18.944 38.64c0 .05-.03.1-.102.144a.567.567 0 0 1-.506 0c-.073-.036-.109-.094-.109-.145.188-1.94-.477-3.894-.304-5.833.16-1.687.948-3.359.594-5.016-.094-.442-.268-.862-.413-1.281-.774-2.186-.354-3.382-.354-3.482-.206 2.802.708 3.464 1.049 4.879.376 1.585-.326 3.213-.42 4.842-.108 1.976.68 3.923.565 5.891z" opacity="1" data-original="#50b069" class=""></path><path fill="#5ec363" d="M16.174 29.345c-.342.122-.385-1.316-1.228-3.184-.673-1.517-1.568-2.552-1.802-3.155-.089-.23-.411-1.732-.193-1.797.15-.053.348.541.406.638.92 1.601 1.207 1.714 1.517 1.995 1.024.933 1.517 2.334 1.672 3.71.087.735-.034 1.08-.372 1.793z" opacity="1" data-original="#5ec363" class=""></path><path fill="#72d561" d="M16 29.278c-.143-.197-.42-1.713-1.054-3.117-.673-1.517-1.568-2.552-1.802-3.155-.15-.392-.281-1.372-.266-1.599.102.17.203.445.237.507.222.387.46.764.71 1.126.304.456.423.534.807.87 1.025.932 1.517 2.333 1.672 3.71.073.613.03.936-.304 1.658z" opacity="1" data-original="#72d561" class=""></path><path fill="#72d561" d="M14.801 27.746c-.074 1.456 1.06 3.14.237 4.411-2.914-3.723-.524-5.17-1.014-7.194-.102-.43-.33-.816-.44-1.237-.208-.797.02-1.638.3-2.41.65-1.834.357-.928.618-2.3.473 1.003.342 2.04.517 3.125.154.972.526 1.928.43 2.909-.092.923-.594 1.768-.648 2.696z" opacity="1" data-original="#72d561" class=""></path><path fill="#78e75a" d="M14.801 27.746c-.071 1.392.91 2.817.368 4.15-2.655-3.56-.372-4.996-.85-6.981-.102-.425-.334-.812-.44-1.237-.382-1.457.623-2.776.826-4.126.227.83.178 1.749.314 2.59.154.97.526 1.927.43 2.908-.092.923-.594 1.768-.648 2.696z" opacity="1" data-original="#78e75a" class=""></path><path fill="#50b069" d="M15.285 31.77c-.391.914.698.43.305 4.98 0 .033-.022.066-.065.098a.369.369 0 0 1-.337 0c-.055-.021-.077-.065-.077-.097.153-1.316.294-2.665-.054-3.948-.478-1.73-.946-3.513-.794-5.296.134-1.47.716-3.035.316-4.557.39 1.044.111 2.594-.066 3.578-.315 1.697.11 3.437.522 5.111.588-1.12 1.175-2.327 1.066-3.588-.076-.87-.478-1.664-.772-2.48 1.45 2.858 1.092 3.289-.044 6.199z" opacity="1" data-original="#50b069" class=""></path><path fill="#5ec363" d="M12.107 20.8c-.054 1.324.66 2.315-.434 4.502-.369.739-1.064 1.383-1.541 2.056a2.113 2.113 0 0 1-.03-.37c0-1.607.597-2.937.753-4.27.094-.738.058-1.49.13-2.229.091-.956.334-1.804.319-2.323-.031-.442-.395-1.506-.014-3.083.05-.21.108-.413.18-.608l.008-.008c.036-.108.159-.535.188-.246.05.413.137.804.275 1.202.166.506.37 1.006.47 1.527.31 1.536-.271 2.837-.304 3.85z" opacity="1" data-original="#5ec363" class=""></path><path fill="#72d561" d="M11.861 20.72c-.055 1.348.668 2.34-.434 4.503-.318.63-.868 1.194-1.324 1.766 0-1.608.596-2.938.752-4.27.094-.739.058-1.491.13-2.23.091-.956.334-1.804.319-2.323-.031-.442-.395-1.506-.014-3.083.05-.21.108-.413.18-.608l.008-.008c.043.297.123.587.217.876.166.507.369 1.006.478 1.527.3 1.557-.28 2.867-.312 3.85z" opacity="1" data-original="#72d561" class=""></path><path fill="#50b069" d="M10.322 25.401c.463-1.524.732-1.55.967-1.97.367-.582.117-1.327.03-2.047-.161-1.453 1.112-3.298.472-4.255.673.917-.502 2.893-.293 4.232.094.647.436 1.486.027 2.204-.182.347-.445.591-.536.928l-.173.49-.147.523z" opacity="1" data-original="#50b069" class=""></path><path fill="#5ec363" d="M10.334 27.032c-.065.116-.13.225-.202.326-.453-.65-.176-3.179-.283-3.966-.238-1.793-2.128-2.59-.116-7.282.015-.05.08-.29.13-.31.051-.015.095.064.138.195.46 1.493-.24 2.714.022 4.14.188 1.05.897 1.947 1.165 2.982.283 1.1-.231 2.822-.854 3.915z" opacity="1" data-original="#5ec363" class=""></path><path fill="#78e75a" d="M10.334 27.032c-.324-.777-.099-3.103-.195-3.807-.22-1.655-2.14-2.818-.138-7.23.46 1.493-.24 2.714.022 4.14.188 1.05.897 1.947 1.165 2.982.283 1.1-.231 2.822-.854 3.915z" opacity="1" data-original="#78e75a" class=""></path><path fill="#50b069" d="M10.812 33.944c0 .051-.03.102-.101.145a.567.567 0 0 1-.507 0c-.072-.036-.109-.094-.109-.145.189-1.94-.477-3.894-.304-5.833.16-1.687.948-3.359.594-5.016-.094-.442-.268-.861-.413-1.281-.774-2.186-.354-3.382-.354-3.482.003.147-.208 1.544.362 3.062.224.608.535 1.187.687 1.817.377 1.585-.326 3.213-.42 4.842-.108 1.976.68 3.923.565 5.891z" opacity="1" data-original="#50b069" class=""></path><path fill="#5ec363" d="M8.042 24.65c-.373.133-.306-1.142-1.228-3.184-.673-1.517-1.568-2.552-1.802-3.155-.12-.314-.164-.647-.207-.976-.01-.087-.073-.41-.058-.623 0-.101.024-.183.072-.198.15-.053.348.541.406.638.924 1.607 1.189 1.698 1.517 1.995 1.024.933 1.517 2.334 1.672 3.71.087.735-.034 1.08-.372 1.793z" opacity="1" data-original="#5ec363" class=""></path><path fill="#72d561" d="M7.868 24.583c-.143-.197-.42-1.713-1.054-3.117-.673-1.517-1.568-2.552-1.802-3.155-.12-.314-.164-.647-.207-.976-.01-.087-.073-.41-.058-.623.101.17.203.445.236.507.883 1.536 1.161 1.684 1.517 1.996 1.025.932 1.517 2.333 1.672 3.71.073.613.03.936-.304 1.658z" opacity="1" data-original="#72d561" class=""></path><path fill="#72d561" d="M6.67 23.051c-.075 1.456 1.06 3.14.236 4.411-2.913-3.723-.524-5.17-1.014-7.194-.102-.43-.329-.816-.44-1.237-.249-.954.122-1.945.469-2.87.425-1.176.284-.972.449-1.84.474 1.003.342 2.04.517 3.126.155.97.527 1.927.43 2.908-.092.923-.594 1.768-.648 2.696z" opacity="1" data-original="#72d561" class=""></path><path fill="#78e75a" d="M6.67 23.051c-.072 1.393.909 2.817.367 4.15-2.654-3.56-.372-4.996-.85-6.981-.102-.425-.334-.812-.44-1.237-.382-1.457.623-2.776.826-4.126.227.83.179 1.749.314 2.59.155.97.527 1.927.43 2.908-.092.923-.594 1.768-.648 2.696z" opacity="1" data-original="#78e75a" class=""></path><path fill="#50b069" d="M7.154 27.075c-.066.152-.13.337-.066.49.577 1.402.5 2.979.37 4.49 0 .033-.022.066-.065.099a.369.369 0 0 1-.337 0c-.055-.022-.076-.066-.076-.098.152-1.316.293-2.665-.055-3.948-.478-1.73-.946-3.513-.794-5.296.139-1.524.72-3.024.316-4.557.39 1.044.112 2.594-.065 3.578-.316 1.697.108 3.437.522 5.111.587-1.12 1.174-2.327 1.065-3.588-.076-.87-.478-1.664-.772-2.48 1.451 2.859 1.092 3.289-.043 6.199z" opacity="1" data-original="#50b069" class=""></path><path fill="#78e75a" d="M50.496 33.73 50.492 36 26.016 50.224c-1.772-1.384-2.352-2.346.004-2.27z" opacity="1" data-original="#78e75a" class=""></path><path fill="#5ec363" d="m26.02 47.953-.004 2.27L2.5 36.648l.004-2.27z" opacity="1" data-original="#5ec363" class=""></path></g></svg>